<?xml version="1.0" standalone="no"?>
<!DOCTYPE svg PUBLIC "-//W3C//DTD SVG 1.1//EN" "http://www.w3.org/Graphics/SVG/1.1/DTD/svg11.dtd" >
<!--
2013-9-30: Created.
-->
<svg>
<metadata>
Created by iconfont
</metadata>
<defs>

<font id="siconfont" horiz-adv-x="1024" >
  <font-face
    font-family="siconfont"
    font-weight="500"
    font-stretch="normal"
    units-per-em="1024"
    ascent="896"
    descent="-128"
  />
    <missing-glyph />
    
    <glyph glyph-name="logo" unicode="&#58913;" d="M743.28576 552.0576s262.7648 51.07072 215.2512 225.54112c-24.01152 88.17152-473.45408 198.78016-697.85984-116.06144-94.53696-132.63488 45.2736-262.4704 131.86176-292.14336 131.48032-45.05728 378.40128-97.41184 385.9072-150.93248 13.14944-93.76128-430.50112-267.56224-568.85632-150.93248-36.72832 30.96192 3.4304 125.77664 11.43424 123.49056 0 0-276.6144-107.38176-105.19552-241.26336 156.65024-122.34752 786.5728-59.61344 833.56032 275.56608 17.152 122.34752-94.49216 138.0288-171.51488 153.21984-658.04416 129.7792-187.52256 386.47936 45.73696 299.57888 62.89152-23.4304-80.32512-126.06336-80.32512-126.06336z"  horiz-adv-x="1024" />

    
    <glyph glyph-name="b-" unicode="&#59187;" d="M682.666667 224m32 0l192 0q32 0 32-32l0 0q0-32-32-32l-192 0q-32 0-32 32l0 0q0 32 32 32ZM682.666667 0H213.333333a85.333333 85.333333 0 0 0-85.333333 85.333333v128a32.426667 32.426667 0 0 0 11.946667 25.173334L324.693333 384a269.653333 269.653333 0 0 0-32 320.853333l3.413334 5.973334A204.373333 204.373333 0 0 0 469.333333 810.666667h85.333334a204.373333 204.373333 0 0 0 173.653333-97.706667l3.413333-5.973333a269.653333 269.653333 0 0 0-32.426666-322.986667l3.413333-2.56a32 32 0 0 0-40.106667-50.346667l-32 25.6a32.426667 32.426667 0 0 0-11.946666 27.306667 31.573333 31.573333 0 0 0 11.946666 24.746667 205.653333 205.653333 0 0 1 46.08 264.96l-3.84 5.973333A139.093333 139.093333 0 0 1 554.666667 746.666667h-85.333334a139.093333 139.093333 0 0 1-118.186666-66.986667l-3.84-5.973333a205.653333 205.653333 0 0 1 46.08-264.96 31.573333 31.573333 0 0 0 11.946666-24.746667 32.426667 32.426667 0 0 0-11.946666-25.173333L192 197.973333V85.333333a21.333333 21.333333 0 0 1 21.333333-21.333333h469.333334a32 32 0 0 0 0-64z"  horiz-adv-x="1024" />

    
    <glyph glyph-name="b-1" unicode="&#59188;" d="M660.906667-82.773333a31.573333 31.573333 0 0 0-22.613334 9.386666l-377.173333 377.173334a53.76 53.76 0 0 0 0 75.093333L640 756.053333a32 32 0 1 0 42.666667-45.226666L314.026667 341.333333 682.666667-28.16a31.573333 31.573333 0 0 0 0-45.226667 31.146667 31.146667 0 0 0-21.76-9.386666z"  horiz-adv-x="1024" />

    
    <glyph glyph-name="b-2" unicode="&#59189;" d="M320.426667-40.106667a31.146667 31.146667 0 0 0-21.76 9.386667 31.573333 31.573333 0 0 0 0 45.226667L667.306667 384 298.666667 753.493333a32 32 0 1 0 42.666666 45.226667l377.173334-377.173333a53.76 53.76 0 0 0 0-75.093334L341.333333-30.72a31.573333 31.573333 0 0 0-20.906666-9.386667z"  horiz-adv-x="1024" />

    
    <glyph glyph-name="b-3" unicode="&#59190;" d="M704 184.746667a32.426667 32.426667 0 0 0-32 32v54.613333l-104.533333 85.333333a33.706667 33.706667 0 0 0-12.8 23.04 31.573333 31.573333 0 0 0 11.946666 24.746667 97.28 97.28 0 0 1 21.76 125.866667 63.146667 63.146667 0 0 1-54.186666 32.853333h-45.226667a61.866667 61.866667 0 0 1-52.48-29.866667 98.56 98.56 0 0 1 20.053333-128 31.573333 31.573333 0 0 0 11.946667-24.746666 33.706667 33.706667 0 0 0-11.946667-25.173334l-104.533333-85.333333v-54.613333a32 32 0 1 0-64 0v71.253333A30.72 30.72 0 0 0 298.666667 311.466667L389.12 384a161.706667 161.706667 0 0 0-9.386667 179.626667 128 128 0 0 0 109.226667 63.573333h46.08a128 128 0 0 0 107.093333-60.586667 163.84 163.84 0 0 0-7.253333-183.466666L725.333333 311.466667a30.72 30.72 0 0 0 11.946667-24.746667v-69.973333a32.426667 32.426667 0 0 0-33.28-32zM814.933333 16.213333H209.066667A81.92 81.92 0 0 0 128 98.986667v152.32a32 32 0 0 0 64 0v-152.32a17.92 17.92 0 0 1 17.066667-18.773334h605.866666a17.92 17.92 0 0 1 17.066667 18.773334v162.133333a32 32 0 1 0 64 0v-162.133333a81.92 81.92 0 0 0-81.066667-82.773334zM864 485.546667a32 32 0 0 0-32 31.573333V679.68a18.346667 18.346667 0 0 1-17.066667 19.2H209.066667a18.346667 18.346667 0 0 1-17.066667-19.2v-152.32a32 32 0 0 0-64 0V679.68a82.346667 82.346667 0 0 0 81.066667 83.2h605.866666a82.346667 82.346667 0 0 0 81.066667-85.333333v-160.426667a32 32 0 0 0-32-31.573333z"  horiz-adv-x="1024" />

    
    <glyph glyph-name="b-4" unicode="&#59191;" d="M196.530683 95.961203m22.627417 22.627417l558.142953 558.142953q22.627417 22.627417 45.254834 0l0 0q22.627417-22.627417 0-45.254834l-558.142953-558.142953q-22.627417-22.627417-45.254834 0l0 0q-22.627417 22.627417 0 45.254834ZM800.006483 51.065376m-22.627417 22.627417l-558.142953 558.142952q-22.627417 22.627417 0 45.254834l0 0q22.627417 22.627417 45.254834 0l558.142953-558.142952q22.627417-22.627417 0-45.254834l0 0q-22.627417-22.627417-45.254834 0Z"  horiz-adv-x="1024" />

    
    <glyph glyph-name="b-5" unicode="&#59192;" d="M780.373333 132.266667a85.333333 85.333333 0 0 0-60.16 25.173333l-52.906666 52.906667A32 32 0 0 0 712.533333 256l52.906667-52.906667a21.76 21.76 0 0 1 30.293333 0l113.066667 112.64a32 32 0 0 0 45.226667-45.226666l-113.066667-113.066667a85.333333 85.333333 0 0 0-60.586667-25.173333zM682.666667 0H213.333333a85.333333 85.333333 0 0 0-85.333333 85.333333v128a32.426667 32.426667 0 0 0 11.946667 25.173334L324.693333 384a269.653333 269.653333 0 0 0-32 320.853333l3.413334 5.973334A204.373333 204.373333 0 0 0 469.333333 810.666667h85.333334a204.373333 204.373333 0 0 0 173.653333-97.706667l3.413333-5.973333a269.653333 269.653333 0 0 0-32.426666-322.986667l3.413333-2.56a32 32 0 0 0-40.106667-50.346667l-32 25.6a32.426667 32.426667 0 0 0-11.946666 27.306667 31.573333 31.573333 0 0 0 11.946666 24.746667 205.653333 205.653333 0 0 1 46.08 264.96l-3.84 5.973333A139.093333 139.093333 0 0 1 554.666667 746.666667h-85.333334a139.093333 139.093333 0 0 1-118.186666-66.986667l-3.84-5.973333a205.653333 205.653333 0 0 1 46.08-264.96 31.573333 31.573333 0 0 0 11.946666-24.746667 32.426667 32.426667 0 0 0-11.946666-25.173333L192 197.973333V85.333333a21.333333 21.333333 0 0 1 21.333333-21.333333h469.333334a32 32 0 0 0 0-64z"  horiz-adv-x="1024" />

    
    <glyph glyph-name="b-6" unicode="&#59193;" d="M395.093333 712.106667l313.173334-313.173334a21.333333 21.333333 0 0 0 0-29.866666l-313.173334-313.173334V712.106667m-21.333333 94.293333a42.666667 42.666667 0 0 1-42.666667-42.666667v-759.466666a42.666667 42.666667 0 0 1 42.666667-42.666667 42.666667 42.666667 0 0 1 29.866667 12.373333l349.866666 349.866667a85.333333 85.333333 0 0 1 0 120.32l-349.866666 349.866667a42.666667 42.666667 0 0 1-29.866667 12.373333z"  horiz-adv-x="1024" />

    
    <glyph glyph-name="b-7" unicode="&#59194;" d="M840.106667 490.666667l-313.173334-313.173334a20.48 20.48 0 0 0-29.866666 0L183.893333 490.666667h656.213334M891.733333 554.666667H132.266667a42.666667 42.666667 0 0 1-30.293334-72.96l349.866667-349.44a85.333333 85.333333 0 0 1 120.32 0l349.866667 349.44A42.666667 42.666667 0 0 1 891.733333 554.666667z"  horiz-adv-x="1024" />

    
    <glyph glyph-name="b-8" unicode="&#59195;" d="M628.906667 712.106667v-656.213334L315.733333 369.066667a21.333333 21.333333 0 0 0 0 29.866666l313.173334 313.173334m21.333333 94.293333a42.666667 42.666667 0 0 1-29.866667-12.373333l-349.866666-349.866667a85.333333 85.333333 0 0 1 0-120.32l349.866666-349.866667a42.666667 42.666667 0 0 1 29.866667-12.373333 42.666667 42.666667 0 0 1 42.666667 42.666667V763.733333a42.666667 42.666667 0 0 1-42.666667 42.666667z"  horiz-adv-x="1024" />

    
    <glyph glyph-name="b-9" unicode="&#59196;" d="M810.666667 704a21.333333 21.333333 0 0 0 21.333333-21.333333v-597.333334a21.333333 21.333333 0 0 0-21.333333-21.333333H213.333333a21.333333 21.333333 0 0 0-21.333333 21.333333V682.666667a21.333333 21.333333 0 0 0 21.333333 21.333333h597.333334M810.666667 768H213.333333a85.333333 85.333333 0 0 1-85.333333-85.333333v-597.333334a85.333333 85.333333 0 0 1 85.333333-85.333333h597.333334a85.333333 85.333333 0 0 1 85.333333 85.333333V682.666667a85.333333 85.333333 0 0 1-85.333333 85.333333zM512 262.826667a33.706667 33.706667 0 0 0-22.613333 9.386666l-120.746667 120.746667a32 32 0 0 0 0 45.226667 31.573333 31.573333 0 0 0 45.226667 0L512 341.333333l158.293333 158.72a32 32 0 0 0 45.226667 0 31.573333 31.573333 0 0 0 0-45.226666l-180.906667-181.333334a33.706667 33.706667 0 0 0-22.613333-10.666666z"  horiz-adv-x="1024" />

    
    <glyph glyph-name="b-10" unicode="&#59197;" d="M85.333333 416m32 0l789.333334 0q32 0 32-32l0 0q0-32-32-32l-789.333334 0q-32 0-32 32l0 0q0 32 32 32ZM480-42.666667m0 32l0 789.333334q0 32 32 32l0 0q32 0 32-32l0-789.333334q0-32-32-32l0 0q-32 0-32 32Z"  horiz-adv-x="1024" />

    
    <glyph glyph-name="b-11" unicode="&#59198;" d="M512 533.333333a20.053333 20.053333 0 0 0 14.933333-6.4L840.106667 213.333333H183.893333l313.173334 313.173334A20.053333 20.053333 0 0 0 512 533.333333M512 597.333333a85.333333 85.333333 0 0 1-60.16-25.173333l-349.866667-349.44a42.666667 42.666667 0 0 1 30.293334-72.96h759.466666a42.666667 42.666667 0 0 1 30.293334 72.96l-349.866667 349.44A85.333333 85.333333 0 0 1 512 597.333333z"  horiz-adv-x="1024" />

    
    <glyph glyph-name="b-12" unicode="&#59199;" d="M512 746.666667A362.666667 362.666667 0 1 0 149.333333 384 363.093333 363.093333 0 0 0 512 746.666667M512 810.666667a426.666667 426.666667 0 1 1 426.666667-426.666667A426.666667 426.666667 0 0 1 512 810.666667zM512 271.786667a51.626667 51.626667 0 0 0-37.546667 15.786666l-105.813333 105.386667a32 32 0 0 0 0 45.226667 31.573333 31.573333 0 0 0 45.226667 0L512 341.333333l158.293333 158.72a32 32 0 0 0 45.226667 0 31.573333 31.573333 0 0 0 0-45.226666l-165.973333-165.973334a51.626667 51.626667 0 0 0-37.546667-17.066666z"  horiz-adv-x="1024" />

    
    <glyph glyph-name="b-13" unicode="&#59200;" d="M810.666667 704a21.333333 21.333333 0 0 0 21.333333-21.333333v-597.333334a21.333333 21.333333 0 0 0-21.333333-21.333333H213.333333a21.333333 21.333333 0 0 0-21.333333 21.333333V682.666667a21.333333 21.333333 0 0 0 21.333333 21.333333h597.333334M810.666667 768H213.333333a85.333333 85.333333 0 0 1-85.333333-85.333333v-597.333334a85.333333 85.333333 0 0 1 85.333333-85.333333h597.333334a85.333333 85.333333 0 0 1 85.333333 85.333333V682.666667a85.333333 85.333333 0 0 1-85.333333 85.333333z"  horiz-adv-x="1024" />

    
    <glyph glyph-name="b-14" unicode="&#59201;" d="M925.44 550.826667L503.04 128A85.333333 85.333333 0 0 0 384 128l-242.773333 241.92a42.666667 42.666667 0 0 0 0 60.586667 42.666667 42.666667 0 0 0 60.16 0L426.666667 203.946667a21.333333 21.333333 0 0 1 29.866666 0l407.466667 407.466666a42.666667 42.666667 0 0 0 60.16 0 42.666667 42.666667 0 0 0 1.28-60.586666z"  horiz-adv-x="1024" />

    
    <glyph glyph-name="b-15" unicode="&#59202;" d="M640 704a21.333333 21.333333 0 0 0 21.333333-21.333333v-469.333334a21.333333 21.333333 0 0 0-21.333333-21.333333H170.666667a21.333333 21.333333 0 0 0-21.333334 21.333333V682.666667a21.333333 21.333333 0 0 0 21.333334 21.333333h469.333333M640 768H170.666667a85.333333 85.333333 0 0 1-85.333334-85.333333v-469.333334a85.333333 85.333333 0 0 1 85.333334-85.333333h469.333333a85.333333 85.333333 0 0 1 85.333333 85.333333V682.666667a85.333333 85.333333 0 0 1-85.333333 85.333333zM842.666667 235.52a85.333333 85.333333 0 0 0-37.973334 8.96L682.666667 306.346667l28.586666 57.173333 123.306667-61.44a19.2 19.2 0 0 1 20.48 0 20.48 20.48 0 0 1 10.24 17.92v256a20.48 20.48 0 0 1-11.946667 17.066667 19.2 19.2 0 0 1-20.48 0l-122.88-60.586667L682.666667 589.653333l123.306666 61.866667a85.333333 85.333333 0 0 0 82.773334-3.84 85.333333 85.333333 0 0 0 40.533333-72.533333v-256a85.333333 85.333333 0 0 0-85.333333-85.333334zM625.92 39.253333L549.12 170.666667h-68.693333a31.146667 31.146667 0 0 1 3.84-16.213334l85.333333-147.2a32.426667 32.426667 0 0 1 42.666667-11.52 32.426667 32.426667 0 0 1 13.653333 43.52zM185.6 38.826667a31.573333 31.573333 0 0 1 11.52-42.666667 32.426667 32.426667 0 0 1 42.666667 11.52l85.333333 147.626667a31.146667 31.146667 0 0 1 5.12 15.36H261.546667zM448 266.666667h-213.333333a32 32 0 0 0 0 64h213.333333a32 32 0 0 0 0-64z"  horiz-adv-x="1024" />

    
    <glyph glyph-name="b-16" unicode="&#59203;" d="M896 270.506667a32 32 0 0 0-32 32v213.333333a32 32 0 0 0 64 0v-213.333333a32 32 0 0 0-32-32zM512 738.133333a23.04 23.04 0 0 0 8.96 0l351.146667-162.133333a20.906667 20.906667 0 0 0 0-38.4l-351.146667-162.133333a20.053333 20.053333 0 0 0-17.92 0L151.893333 535.466667a20.906667 20.906667 0 0 0 0 38.4l351.146667 162.133333a23.04 23.04 0 0 0 8.96 0m0 64a81.493333 81.493333 0 0 1-35.84-8.106667L125.013333 632.32a85.333333 85.333333 0 0 1 0-155.306667l351.146667-161.706666a85.333333 85.333333 0 0 1 71.68 0l351.146667 161.706666a85.333333 85.333333 0 0 1 0 155.306667l-351.146667 161.706667A81.493333 81.493333 0 0 1 512 802.133333zM512-7.253333a82.773333 82.773333 0 0 0-42.666667 11.52l-224 128a85.333333 85.333333 0 0 0-42.666666 73.813333v246.613333a32 32 0 0 0 64 0v-246.613333a21.333333 21.333333 0 0 1 10.666666-18.346667l224-128a21.333333 21.333333 0 0 1 21.333334 0l224 128a21.333333 21.333333 0 0 1 10.666666 18.346667v246.613333a32 32 0 0 0 64 0v-246.613333a85.333333 85.333333 0 0 0-42.666666-73.813333l-224-128a82.773333 82.773333 0 0 0-42.666667-11.52z"  horiz-adv-x="1024" />

    
    <glyph glyph-name="b-17" unicode="&#59204;" d="M757.333333-42.666667H266.666667a85.333333 85.333333 0 0 0-85.333334 85.333334v352h64V42.666667a21.333333 21.333333 0 0 1 21.333334-21.333334h490.666666a21.333333 21.333333 0 0 1 21.333334 21.333334v352h64V42.666667a85.333333 85.333333 0 0 0-85.333334-85.333334zM534.613333 621.653333h-45.226666l-128 128a32 32 0 0 0 45.226666 45.226667L512 689.493333l105.386667 105.386667a32 32 0 0 0 45.226666-45.226667zM853.333333 618.666667a21.333333 21.333333 0 0 0 21.333334-21.333334v-128a21.333333 21.333333 0 0 0-21.333334-21.333333H170.666667a21.333333 21.333333 0 0 0-21.333334 21.333333V597.333333a21.333333 21.333333 0 0 0 21.333334 21.333334h682.666666M853.333333 682.666667H170.666667a85.333333 85.333333 0 0 1-85.333334-85.333334v-128a85.333333 85.333333 0 0 1 85.333334-85.333333h682.666666a85.333333 85.333333 0 0 1 85.333334 85.333333V597.333333a85.333333 85.333333 0 0 1-85.333334 85.333334zM512 96a32.426667 32.426667 0 0 0-32 32V512a32 32 0 0 0 64 0v-384a32.426667 32.426667 0 0 0-32-32z"  horiz-adv-x="1024" />

    
    <glyph glyph-name="b-18" unicode="&#59205;" d="M512 746.666667A362.666667 362.666667 0 1 0 149.333333 384 363.093333 363.093333 0 0 0 512 746.666667M512 810.666667a426.666667 426.666667 0 1 1 426.666667-426.666667A426.666667 426.666667 0 0 1 512 810.666667zM512 224a285.866667 285.866667 0 0 0-159.146667 48.213333 31.573333 31.573333 0 0 0-8.96 42.666667 32 32 0 0 0 42.666667 8.533333 226.986667 226.986667 0 0 1 248.746667 0 32.426667 32.426667 0 0 0 44.8-8.96 32 32 0 0 0-8.96-42.666666A286.72 286.72 0 0 0 512 224zM384 469.333333m-42.666667 0a42.666667 42.666667 0 1 1 85.333334 0 42.666667 42.666667 0 1 1-85.333334 0ZM640 469.333333m-42.666667 0a42.666667 42.666667 0 1 1 85.333334 0 42.666667 42.666667 0 1 1-85.333334 0Z"  horiz-adv-x="1024" />

    
    <glyph glyph-name="b-19" unicode="&#59206;" d="M762.88 439.466667a31.573333 31.573333 0 0 0-30.293333 21.76 213.333333 213.333333 0 0 1-140.373334 128 32.426667 32.426667 0 0 0-20.906666 42.666666 32 32 0 0 0 40.106666 20.48 274.346667 274.346667 0 0 0 181.76-167.68 32 32 0 0 0-20.053333-40.533333 28.586667 28.586667 0 0 0-10.24-4.693333zM512 704a361.813333 361.813333 0 0 0 357.12-298.666667H154.88a361.813333 361.813333 0 0 0 357.12 298.666667M512 768a426.666667 426.666667 0 0 1-424.106667-378.88 42.666667 42.666667 0 0 1 42.666667-47.786667h762.88a42.666667 42.666667 0 0 1 42.666667 47.786667A426.666667 426.666667 0 0 1 512 768zM426.666667-74.666667A117.333333 117.333333 0 0 0 309.333333 42.666667a32 32 0 0 0 64 0 53.333333 53.333333 0 0 1 106.666667 0v320a32 32 0 0 0 64 0V42.666667A117.333333 117.333333 0 0 0 426.666667-74.666667zM512 736a32.426667 32.426667 0 0 0-32 32V810.666667a32 32 0 0 0 64 0v-42.666667a32.426667 32.426667 0 0 0-32-32z"  horiz-adv-x="1024" />

    
    <glyph glyph-name="b-20" unicode="&#59207;" d="M768-42.666667H256a85.333333 85.333333 0 0 0-85.333333 85.333334V640a85.333333 85.333333 0 0 0 85.333333 85.333333h85.333333v-64H256a21.333333 21.333333 0 0 1-21.333333-21.333333v-597.333333a21.333333 21.333333 0 0 1 21.333333-21.333334h512a21.333333 21.333333 0 0 1 21.333333 21.333334V640a21.333333 21.333333 0 0 1-21.333333 21.333333h-85.333333V725.333333h85.333333a85.333333 85.333333 0 0 0 85.333333-85.333333v-597.333333a85.333333 85.333333 0 0 0-85.333333-85.333334zM618.666667 597.333333h-213.333334a96 96 0 0 0 0 192h213.333334a96 96 0 0 0 0-192z m-213.333334 128a32 32 0 0 1 0-64h213.333334a32 32 0 0 1 0 64zM506.88 238.506667a54.186667 54.186667 0 0 0-37.973333 15.36l-105.386667 105.813333a31.573333 31.573333 0 0 0 0 45.226667 32 32 0 0 0 45.226667 0l98.133333-98.133334 158.293333 158.293334a31.573333 31.573333 0 0 0 45.226667 0 32 32 0 0 0 0-45.226667l-165.973333-165.973333a54.186667 54.186667 0 0 0-37.546667-15.36z"  horiz-adv-x="1024" />

    
    <glyph glyph-name="b-21" unicode="&#59208;" d="M512 694.186667c186.026667 0 309.333333-73.813333 309.333333-122.88s-123.306667-122.453333-309.333333-122.453334-309.333333 73.813333-309.333333 122.453334S325.973333 694.186667 512 694.186667m0 64c-206.08 0-373.333333-85.333333-373.333333-186.88S305.92 384 512 384s373.333333 85.333333 373.333333 186.453333-167.253333 187.733333-373.333333 187.733334zM512 175.36c-206.506667 0-367.786667 87.893333-367.786667 200.106667a32 32 0 0 0 31.573334 32 32.426667 32.426667 0 0 0 32.426666-32c0-64.426667 124.586667-136.106667 303.786667-136.106667s303.786667 71.68 303.786667 136.106667a32.426667 32.426667 0 0 0 32.426666 32 32 32 0 0 0 31.573334-32c0-112.213333-161.28-200.106667-367.786667-200.106667zM512-54.186667c-206.506667 0-367.786667 87.893333-367.786667 200.106667a31.573333 31.573333 0 0 0 31.573334 32 32 32 0 0 0 32.426666-32c0-64.426667 124.586667-136.106667 303.786667-136.106667s303.786667 71.68 303.786667 136.106667a32 32 0 0 0 32.426666 32 31.573333 31.573333 0 0 0 31.573334-32c0-112.213333-161.28-200.106667-367.786667-200.106667z"  horiz-adv-x="1024" />

    
    <glyph glyph-name="b-22" unicode="&#59209;" d="M384 522.666667m32 0l277.333333 0q32 0 32-32l0 0q0-32-32-32l-277.333333 0q-32 0-32 32l0 0q0 32 32 32ZM384 330.666667m32 0l277.333333 0q32 0 32-32l0 0q0-32-32-32l-277.333333 0q-32 0-32 32l0 0q0 32 32 32ZM794.453333 0H261.12a85.333333 85.333333 0 0 0-85.333333 85.333333v65.28a32 32 0 0 0 32.426666 32 31.573333 31.573333 0 0 0 31.573334-32V85.333333a20.906667 20.906667 0 0 1 21.333333-19.626666h533.333333a20.48 20.48 0 0 1 21.333334 19.626666V682.666667a20.48 20.48 0 0 1-21.333334 19.626666H261.12a20.906667 20.906667 0 0 1-21.333333-19.626666v-65.28a31.573333 31.573333 0 0 0-31.573334-32 32 32 0 0 0-32.426666 32V682.666667a85.333333 85.333333 0 0 0 85.333333 85.333333h533.333333a85.333333 85.333333 0 0 0 85.333334-85.333333v-597.333334a85.333333 85.333333 0 0 0-85.333334-85.333333zM266.666667 480h-128a32 32 0 0 0 0 64h128a32 32 0 0 0 0-64zM266.666667 352h-128a32 32 0 0 0 0 64h128a32 32 0 0 0 0-64zM266.666667 224h-128a32 32 0 0 0 0 64h128a32 32 0 0 0 0-64z"  horiz-adv-x="1024" />

    
    <glyph glyph-name="b-23" unicode="&#59210;" d="M512 759.04a23.04 23.04 0 0 0 14.506667-5.546667l292.693333-268.373333a20.053333 20.053333 0 0 0 5.12-23.466667 19.2 19.2 0 0 0-19.626667-13.653333H219.306667a19.2 19.2 0 0 0-19.626667 13.653333 20.053333 20.053333 0 0 0 5.12 23.466667l292.693333 268.373333a23.04 23.04 0 0 0 14.506667 5.546667m0 64a85.333333 85.333333 0 0 1-57.6-22.613333L161.706667 532.053333A85.333333 85.333333 0 0 1 219.306667 384h585.386666a85.333333 85.333333 0 0 1 57.6 148.053333l-292.693333 268.373334A85.333333 85.333333 0 0 1 512 823.04zM853.333333-21.333333H170.666667A32 32 0 0 0 170.666667 42.666667h682.666666a32 32 0 0 0 0-64zM213.333333 10.666667a32.426667 32.426667 0 0 0-32 32v256a32 32 0 0 0 64 0v-256a32.426667 32.426667 0 0 0-32-32zM384-10.666667a32.426667 32.426667 0 0 0-32 32v213.333334a32 32 0 0 0 64 0v-213.333334a32.426667 32.426667 0 0 0-32-32zM640-10.666667a32.426667 32.426667 0 0 0-32 32v213.333334a32 32 0 0 0 64 0v-213.333334a32.426667 32.426667 0 0 0-32-32zM810.666667 10.666667a32.426667 32.426667 0 0 0-32 32v256a32 32 0 0 0 64 0v-256a32.426667 32.426667 0 0 0-32-32z"  horiz-adv-x="1024" />

    
    <glyph glyph-name="b-24" unicode="&#59211;" d="M512 746.666667A362.666667 362.666667 0 1 0 149.333333 384 363.093333 363.093333 0 0 0 512 746.666667M512 810.666667a426.666667 426.666667 0 1 1 426.666667-426.666667A426.666667 426.666667 0 0 1 512 810.666667zM450.133333 170.666667a74.24 74.24 0 0 0-74.666666 76.8V520.533333a75.093333 75.093333 0 0 0 38.826666 65.706667 74.24 74.24 0 0 0 76.373334-3.413333l209.493333-136.106667a75.093333 75.093333 0 0 0 0-125.44l-209.493333-136.106667a74.24 74.24 0 0 0-40.533334-14.506666z m0 358.4a14.933333 14.933333 0 0 1-5.12 0 10.24 10.24 0 0 1-5.546666-9.386667v-273.066667a10.24 10.24 0 0 1 5.546666-9.386666 10.666667 10.666667 0 0 1 10.666667 0l209.493333 136.533333a11.093333 11.093333 0 0 1 0 17.92l-209.493333 136.533333a9.386667 9.386667 0 0 1-5.546667 2.986667z"  horiz-adv-x="1024" />

    
    <glyph glyph-name="b-25" unicode="&#59212;" d="M512 746.666667a61.866667 61.866667 0 0 0 54.186667-29.866667 63.146667 63.146667 0 0 0 2.986666-61.866667 64 64 0 0 1 8.96-69.546666L676.693333 469.333333a63.573333 63.573333 0 0 1 48.64-21.333333 58.026667 58.026667 0 0 1 23.893334 4.693333l109.226666 42.666667-57.173333-371.626667a21.76 21.76 0 0 0-21.333333-17.92H244.053333a21.76 21.76 0 0 0-21.333333 17.92L165.973333 494.933333l101.12-42.666666a70.4 70.4 0 0 1 24.32-4.693334A64 64 0 0 1 341.333333 469.333333l102.4 118.613334a64.853333 64.853333 0 0 1 10.24 68.693333A62.72 62.72 0 0 0 448 682.666667 64 64 0 0 0 512 746.666667M512 810.666667a128 128 0 0 1-116.48-180.48L291.413333 512 155.306667 568.32a46.08 46.08 0 0 1-16.213334 3.413333 42.666667 42.666667 0 0 1-42.666666-49.066666l63.146666-407.466667a85.333333 85.333333 0 0 1 85.333334-72.533333h535.04a85.333333 85.333333 0 0 1 85.333333 72.533333l62.72 408.32a42.666667 42.666667 0 0 1-42.666667 49.066667 42.666667 42.666667 0 0 1-16.213333-2.986667L725.333333 512l-98.56 115.2a125.44 125.44 0 0 1-4.266666 119.893333A124.16 124.16 0 0 1 512 810.666667zM324.266667 160.853333a32.426667 32.426667 0 0 0-31.573334 27.306667l-26.88 168.533333a32.426667 32.426667 0 0 0 26.453334 36.693334 32 32 0 0 0 36.693333-26.88l26.88-168.533334a32 32 0 0 0-26.453333-36.693333z"  horiz-adv-x="1024" />

    
    <glyph glyph-name="b-26" unicode="&#59213;" d="M682.666667 416a32.426667 32.426667 0 0 0-32 32V693.333333a21.333333 21.333333 0 0 1-21.333334 21.333334h-234.666666a21.333333 21.333333 0 0 1-21.333334-21.333334v-245.333333a32 32 0 0 0-64 0V693.333333a85.333333 85.333333 0 0 0 85.333334 85.333334h234.666666a85.333333 85.333333 0 0 0 85.333334-85.333334v-245.333333a32.426667 32.426667 0 0 0-32-32zM831.573333 490.666667a20.906667 20.906667 0 0 0 20.48-26.026667l-88.32-384a21.76 21.76 0 0 0-20.906666-16.64H281.173333a21.76 21.76 0 0 0-20.906666 16.64l-89.6 384a20.906667 20.906667 0 0 0 20.48 26.026667h640m0 64h-640a85.333333 85.333333 0 0 1-82.773334-104.533334l88.32-384a85.333333 85.333333 0 0 1 85.333334-66.133333h460.8a85.333333 85.333333 0 0 1 83.2 66.133333l88.32 384A85.333333 85.333333 0 0 1 831.573333 554.666667zM640 138.666667H384a32 32 0 0 0 0 64h256a32 32 0 0 0 0-64z"  horiz-adv-x="1024" />

    
    <glyph glyph-name="b-27" unicode="&#59214;" d="M896-10.666667H128a32 32 0 0 0-28.586667 17.92 31.573333 31.573333 0 0 0 2.986667 33.28l128 170.666667a32 32 0 1 0 51.2-38.4l-89.6-119.466667h640L742.4 170.666667a32 32 0 1 0 51.2 38.4l128-170.666667a31.573333 31.573333 0 0 0 2.986667-33.28 32 32 0 0 0-28.586667-15.786667zM512 523.093333a42.666667 42.666667 0 1 0-42.666667-42.666666 42.666667 42.666667 0 0 0 42.666667 42.666666m0 64a106.666667 106.666667 0 1 1 106.666667-106.666666 106.666667 106.666667 0 0 1-106.666667 106.666666zM512 78.933333a75.52 75.52 0 0 0-55.466667 23.893334c-67.84 72.106667-186.026667 203.946667-218.453333 277.333333A302.506667 302.506667 0 0 0 213.333333 499.626667a298.666667 298.666667 0 0 0 307.2 298.666666A298.666667 298.666667 0 0 0 810.666667 516.266667a293.12 293.12 0 0 0-23.466667-132.266667c-31.573333-75.093333-151.04-208.213333-219.733333-280.746667a75.52 75.52 0 0 0-55.466667-24.32z m0 655.36a234.666667 234.666667 0 0 1-234.666667-234.666666 229.973333 229.973333 0 0 1 21.333334-93.866667 1322.666667 1322.666667 0 0 1 206.08-258.986667 11.52 11.52 0 0 1 8.96-3.84 11.52 11.52 0 0 1 8.96 3.84c111.36 118.186667 186.88 213.333333 207.36 261.546667A235.52 235.52 0 0 1 746.24 512a238.506667 238.506667 0 0 1-227.413333 221.44z"  horiz-adv-x="1024" />

    
    <glyph glyph-name="b-28" unicode="&#59215;" d="M831.573333 576a20.906667 20.906667 0 0 0 20.48-26.026667l-88.32-384a21.76 21.76 0 0 0-20.906666-16.64H281.173333a21.76 21.76 0 0 0-20.906666 16.64L165.973333 576h665.6m0 64H85.333333l112.64-488.533333a85.333333 85.333333 0 0 1 85.333334-66.133334h459.52a85.333333 85.333333 0 0 1 83.2 66.133334l88.32 384A85.333333 85.333333 0 0 1 831.573333 640zM216.746667 181.333333a32 32 0 0 0-31.146667 24.746667l-128 554.666667a32 32 0 0 0 62.293333 14.506666l128-554.666666a32 32 0 0 0-23.893333-38.4zM661.333333 224h-298.666666a32 32 0 0 0 0 64h298.666666a32 32 0 0 0 0-64zM341.333333 0m-42.666666 0a42.666667 42.666667 0 1 1 85.333333 0 42.666667 42.666667 0 1 1-85.333333 0ZM682.666667 0m-42.666667 0a42.666667 42.666667 0 1 1 85.333333 0 42.666667 42.666667 0 1 1-85.333333 0Z"  horiz-adv-x="1024" />

    
    <glyph glyph-name="b-29" unicode="&#59216;" d="M384 352a183.04 183.04 0 0 0-156.586667 103.253333 191.146667 191.146667 0 0 1-80.213333-54.613333 32 32 0 0 0-45.226667 45.226667C128 469.333333 188.16 526.08 239.786667 517.546667a61.013333 61.013333 0 0 0 42.666666-34.133334A121.6 121.6 0 0 1 338.346667 426.666667a191.573333 191.573333 0 0 0 19.626666 144.64 173.653333 173.653333 0 0 0 98.133334 62.293333L473.6 640a514.56 514.56 0 0 1-139.946667 54.186667 32 32 0 0 0 15.36 62.293333C478.293333 725.333333 544 682.666667 544 640s-42.666667-57.173333-68.266667-65.706667a118.186667 118.186667 0 0 1-65.706666-37.973333c-26.453333-37.973333-6.4-114.346667 3.84-140.8a32 32 0 0 0-29.866667-42.666667z m97.28 282.026667zM661.333333 0h-4.693333a32 32 0 0 0-26.88 36.266667l18.346667 119.466666c-54.186667 42.666667-119.04 120.746667-79.36 199.253334s132.693333 75.946667 194.56 69.12L748.373333 469.333333a128 128 0 0 0-130.986666 19.2 55.893333 55.893333 0 0 0-16.213334 45.653334c5.12 60.586667 106.666667 137.386667 137.813334 159.573333a32 32 0 0 0 36.693333-52.053333 363.946667 363.946667 0 0 1-110.506667-110.08c23.466667-18.346667 75.52 0 88.746667 8.106666a30.293333 30.293333 0 0 0 26.453333 0 32 32 0 0 0 17.92-19.2l42.666667-128a31.573333 31.573333 0 0 0-6.826667-32 32.426667 32.426667 0 0 0-31.146666-9.386666c-37.973333 9.386667-151.893333 24.746667-177.066667-25.6-28.586667-57.6 73.386667-128 74.666667-128a31.146667 31.146667 0 0 0 13.653333-31.146667l-21.333333-138.666667a32 32 0 0 0-31.573334-27.733333zM512-32a32.426667 32.426667 0 0 0-32 32c0 90.88-48.64 95.573333-54.186667 96a33.28 33.28 0 0 0-29.44 21.76S358.826667 224 298.666667 224a122.88 122.88 0 0 1-101.546667-35.84 32.426667 32.426667 0 0 0-42.666667-8.106667 31.573333 31.573333 0 0 0-8.96 42.666667c4.266667 6.826667 45.226667 64.426667 154.88 64.426667 85.333333 0 133.546667-90.88 151.04-130.986667 42.666667-11.093333 94.293333-51.626667 94.293334-157.013333a32.426667 32.426667 0 0 0-33.706667-31.146667zM512 746.666667A362.666667 362.666667 0 1 0 149.333333 384 363.093333 363.093333 0 0 0 512 746.666667M512 810.666667a426.666667 426.666667 0 1 1 426.666667-426.666667A426.666667 426.666667 0 0 1 512 810.666667z"  horiz-adv-x="1024" />

    
    <glyph glyph-name="b-30" unicode="&#59217;" d="M298.666667-32H218.453333a85.333333 85.333333 0 0 0-85.333333 85.333333V672a85.333333 85.333333 0 0 0 85.333333 85.333333h533.333334a85.333333 85.333333 0 0 0 85.333333-85.333333v-69.12a32 32 0 0 0-31.573333-32 32.426667 32.426667 0 0 0-32.426667 32V672a21.333333 21.333333 0 0 1-21.333333 21.333333H218.453333a21.333333 21.333333 0 0 1-21.333333-21.333333v-618.666667a21.333333 21.333333 0 0 1 21.333333-21.333333H298.666667a32 32 0 0 0 0-64zM416 501.333333h-128a32 32 0 0 0 0 64h128a32 32 0 0 0 0-64zM416 373.333333h-128a32 32 0 0 0 0 64h128a32 32 0 0 0 0-64zM682.666667 394.666667a192 192 0 1 0-192-192 192.426667 192.426667 0 0 0 192 192m0 64a256 256 0 1 1 256-256 256 256 0 0 1-256 256zM734.72 118.613333a31.146667 31.146667 0 0 0-22.613333 9.386667l-52.053334 52.053333a32 32 0 0 0-9.386666 22.613334v89.6a32 32 0 1 0 64 0v-76.373334l42.666666-42.666666a32 32 0 0 0 0-45.226667 31.573333 31.573333 0 0 0-22.613333-9.386667z"  horiz-adv-x="1024" />

    
    <glyph glyph-name="b-31" unicode="&#59218;" d="M586.666667-42.666667a85.333333 85.333333 0 0 0-37.973334 8.96L399.36 42.666667a85.333333 85.333333 0 0 0-47.36 76.373333v251.733333L110.933333 611.84A85.333333 85.333333 0 0 0 170.666667 757.333333h682.666666a85.333333 85.333333 0 0 0 59.733334-145.92l-239.786667-238.08V42.666667a85.333333 85.333333 0 0 0-85.333333-85.333334z m-9.386667 66.56a19.2 19.2 0 0 1 20.48 0 20.48 20.48 0 0 1 10.24 17.92v341.333334a32 32 0 0 0 9.386667 22.613333l249.6 247.466667a21.333333 21.333333 0 0 1 4.693333 23.466666 20.906667 20.906667 0 0 1-18.346667 16.64H170.666667a21.333333 21.333333 0 0 1-15.36-36.266666l250.453333-250.453334a32 32 0 0 0 9.386667-22.613333v-265.813333a20.906667 20.906667 0 0 1 11.946666-18.773334zM594.773333 456.106667a31.573333 31.573333 0 0 0-22.613333 9.386666 32 32 0 0 0 0 45.226667l90.453333 90.453333A32 32 0 0 0 707.84 554.666667l-90.453333-90.453334a31.573333 31.573333 0 0 0-22.613334-8.106666z"  horiz-adv-x="1024" />

    
    <glyph glyph-name="b-32" unicode="&#59219;" d="M375.893333 448a22.186667 22.186667 0 0 0 17.493334-8.96l66.56-92.586667a64.853333 64.853333 0 0 1 52.053333-26.453333h341.333333a21.333333 21.333333 0 0 0 21.333334-21.333333v-213.333334a21.333333 21.333333 0 0 0-21.333334-21.333333H170.666667a21.333333 21.333333 0 0 0-21.333334 21.333333v341.333334a21.333333 21.333333 0 0 0 21.333334 21.333333h205.226666m0 64H170.666667a85.333333 85.333333 0 0 1-85.333334-85.333333v-341.333334a85.333333 85.333333 0 0 1 85.333334-85.333333h682.666666a85.333333 85.333333 0 0 1 85.333334 85.333333v213.333334a85.333333 85.333333 0 0 1-85.333334 85.333333h-341.333333l-66.986667 92.586667A85.333333 85.333333 0 0 1 375.893333 512zM354.986667 711.253333L768 601.173333a21.76 21.76 0 0 0 15.36-26.453333L731.306667 384h66.133333l46.506667 174.506667a85.333333 85.333333 0 0 1-60.16 104.533333L371.626667 773.12a85.333333 85.333333 0 0 1-104.533334-60.16L213.333333 512h66.133334l49.493333 184.32a20.906667 20.906667 0 0 0 26.026667 14.933333zM616.106667 499.2h-8.533334l-164.693333 42.666667a32 32 0 0 0-22.613333 39.253333 32.426667 32.426667 0 0 0 39.253333 22.613333l164.693333-42.666666a32 32 0 0 0-8.106666-62.72z"  horiz-adv-x="1024" />

    
    <glyph glyph-name="b-33" unicode="&#59220;" d="M853.333333 661.333333a21.333333 21.333333 0 0 0 21.333334-21.333333v-512a21.333333 21.333333 0 0 0-21.333334-21.333333H170.666667a21.333333 21.333333 0 0 0-21.333334 21.333333V640a21.333333 21.333333 0 0 0 21.333334 21.333333h682.666666M853.333333 725.333333H170.666667a85.333333 85.333333 0 0 1-85.333334-85.333333v-512a85.333333 85.333333 0 0 1 85.333334-85.333333h682.666666a85.333333 85.333333 0 0 1 85.333334 85.333333V640a85.333333 85.333333 0 0 1-85.333334 85.333333zM640 390.4H384a32 32 0 0 0 0 64h256a32 32 0 0 0 0-64zM640 262.4H384a32 32 0 0 0 0 64h256a32 32 0 0 0 0-64zM512 177.066667a32.426667 32.426667 0 0 0-32 32v213.333333a32 32 0 0 0 9.386667 22.613333l128 128a31.573333 31.573333 0 0 0 45.226666 0 32 32 0 0 0 0-45.226666l-118.613333-118.613334v-200.106666a32.426667 32.426667 0 0 0-32-32zM471.466667 467.2a31.573333 31.573333 0 0 0-22.613334 9.386667L388.693333 536.746667a32 32 0 0 0 0 45.226666 32 32 0 0 0 45.226667 0l60.16-60.16a31.573333 31.573333 0 0 0 0-45.226666 30.293333 30.293333 0 0 0-22.613333-9.386667z"  horiz-adv-x="1024" />

    
    <glyph glyph-name="b-34" unicode="&#59221;" d="M298.666667-32H218.453333a85.333333 85.333333 0 0 0-85.333333 85.333333V672a85.333333 85.333333 0 0 0 85.333333 85.333333h533.333334a85.333333 85.333333 0 0 0 85.333333-85.333333v-69.12a32 32 0 0 0-31.573333-32 32.426667 32.426667 0 0 0-32.426667 32V672a21.333333 21.333333 0 0 1-21.333333 21.333333H218.453333a21.333333 21.333333 0 0 1-21.333333-21.333333v-618.666667a21.333333 21.333333 0 0 1 21.333333-21.333333H298.666667a32 32 0 0 0 0-64zM862.72-32h-370.773333A64.853333 64.853333 0 0 0 426.666667 33.28v79.36a32.426667 32.426667 0 0 0 11.946666 25.173333l104.96 85.333334a180.053333 180.053333 0 0 0-12.8 203.946666l2.133334 3.84a138.666667 138.666667 0 0 0 118.186666 66.56h52.48a138.666667 138.666667 0 0 0 118.186667-66.56v-3.84a180.053333 180.053333 0 0 0-12.8-203.946666l104.96-85.333334a32.426667 32.426667 0 0 0 11.946667-25.173333v-79.36a64.853333 64.853333 0 0 0-63.146667-65.28z m-372.053333 128v-64h372.053333v64l-120.746667 96.426667a32.853333 32.853333 0 0 0-11.946666 24.746666 32.426667 32.426667 0 0 0 11.946666 25.173334A115.626667 115.626667 0 0 1 768 392.533333v3.84a74.666667 74.666667 0 0 1-63.573333 35.413334h-53.333334a74.24 74.24 0 0 1-63.573333-35.84v-3.413334a115.626667 115.626667 0 0 1 26.026667-148.906666 32.426667 32.426667 0 0 0 11.946666-25.173334 32.853333 32.853333 0 0 0-11.946666-24.746666zM416 501.333333h-128a32 32 0 0 0 0 64h128a32 32 0 0 0 0-64zM416 373.333333h-128a32 32 0 0 0 0 64h128a32 32 0 0 0 0-64z"  horiz-adv-x="1024" />

    
    <glyph glyph-name="b-35" unicode="&#59222;" d="M512 717.653333a21.333333 21.333333 0 0 0 14.08-5.12l298.666667-265.386666a22.186667 22.186667 0 0 0 7.253333-16.213334V85.333333a21.333333 21.333333 0 0 0-21.333333-21.333333H213.333333a21.333333 21.333333 0 0 0-21.333333 21.333333v345.6a22.186667 22.186667 0 0 0 7.253333 16.213334l298.666667 265.386666a21.333333 21.333333 0 0 0 14.08 5.12m0 64a85.333333 85.333333 0 0 1-56.746667-21.333333l-298.666666-265.386667A85.333333 85.333333 0 0 1 128 430.933333V85.333333a85.333333 85.333333 0 0 1 85.333333-85.333333h597.333334a85.333333 85.333333 0 0 1 85.333333 85.333333v345.6a85.333333 85.333333 0 0 1-28.586667 64l-298.666666 265.386667a85.333333 85.333333 0 0 1-56.746667 21.333333zM512 138.666667a32.426667 32.426667 0 0 0-32 32v170.666666a32 32 0 0 0 64 0v-170.666666a32.426667 32.426667 0 0 0-32-32z"  horiz-adv-x="1024" />

    
    <glyph glyph-name="b-36" unicode="&#59223;" d="M810.666667 0H213.333333a85.333333 85.333333 0 0 0-85.333333 85.333333v128a31.573333 31.573333 0 0 0 11.946667 25.173334l185.6 146.346666A270.506667 270.506667 0 0 0 294.4 708.266667l4.266667 5.973333A203.52 203.52 0 0 0 469.333333 810.666667h85.333334a202.666667 202.666667 0 0 0 174.933333-98.986667l3.84-5.973333a270.506667 270.506667 0 0 0-34.133333-320.853334l183.893333-148.906666a31.573333 31.573333 0 0 0 11.946667-24.746667v-128a85.333333 85.333333 0 0 0-25.6-60.16A82.346667 82.346667 0 0 0 810.666667 0zM190.72 199.68V85.333333a22.186667 22.186667 0 0 1 5.973333-14.933333 22.613333 22.613333 0 0 1 15.36-6.4l597.333334-3.413333a21.333333 21.333333 0 0 1 14.933333 5.973333 22.613333 22.613333 0 0 1 6.4 15.36v113.92l-200.106667 162.56a30.72 30.72 0 0 0-11.946666 25.6 32.426667 32.426667 0 0 0 11.946666 25.173333 205.226667 205.226667 0 0 1 47.786667 264.533334l-3.413333 5.973333A139.52 139.52 0 0 1 554.666667 746.24h-85.333334a138.666667 138.666667 0 0 1-116.48-65.706667l-3.84-5.546666a206.08 206.08 0 0 1 44.8-265.386667 32.853333 32.853333 0 0 0 11.52-25.6 32 32 0 0 0-12.373333-24.746667zM512 138.666667a32 32 0 0 0-32 32v85.333333a32 32 0 0 0 64 0v-85.333333a31.573333 31.573333 0 0 0-32-32z"  horiz-adv-x="1024" />

    
    <glyph glyph-name="b-37" unicode="&#59224;" d="M768 426.666667a21.333333 21.333333 0 0 0 21.333333-21.333334v-341.333333a21.333333 21.333333 0 0 0-21.333333-21.333333H256a21.333333 21.333333 0 0 0-21.333333 21.333333v341.333333A21.333333 21.333333 0 0 0 256 426.666667h512m0 64H256a85.333333 85.333333 0 0 1-85.333333-85.333334v-341.333333a85.333333 85.333333 0 0 1 85.333333-85.333333h512a85.333333 85.333333 0 0 1 85.333333 85.333333v341.333333a85.333333 85.333333 0 0 1-85.333333 85.333334zM298.666667 448a32.426667 32.426667 0 0 0-32 32v42.666667A245.333333 245.333333 0 0 0 752.64 571.733333a31.573333 31.573333 0 0 0-25.173333-37.546666 31.146667 31.146667 0 0 0-37.546667 24.746666 181.333333 181.333333 0 0 1-359.253333-36.266666v-42.666667a32.426667 32.426667 0 0 0-32-32zM512 160a32.426667 32.426667 0 0 0-32 32v85.333333a32 32 0 0 0 64 0v-85.333333a32.426667 32.426667 0 0 0-32-32z"  horiz-adv-x="1024" />

    
    <glyph glyph-name="b-38" unicode="&#59225;" d="M810.666667 682.666667a21.333333 21.333333 0 0 0 21.333333-21.333334v-554.666666a21.333333 21.333333 0 0 0-21.333333-21.333334H213.333333a21.333333 21.333333 0 0 0-21.333333 21.333334v554.666666A21.333333 21.333333 0 0 0 213.333333 682.666667h597.333334m0 64H213.333333a85.333333 85.333333 0 0 1-85.333333-85.333334v-554.666666a85.333333 85.333333 0 0 1 85.333333-85.333334h597.333334a85.333333 85.333333 0 0 1 85.333333 85.333334v554.666666a85.333333 85.333333 0 0 1-85.333333 85.333334zM170.666667 565.333333h682.666666v-64H170.666667zM330.666667 853.333333m32 0l0 0q32 0 32-32l0-106.666666q0-32-32-32l0 0q-32 0-32 32l0 106.666666q0 32 32 32ZM629.333333 853.333333m32 0l0 0q32 0 32-32l0-106.666666q0-32-32-32l0 0q-32 0-32 32l0 106.666666q0 32 32 32ZM512 181.333333a32.426667 32.426667 0 0 0-32 32v170.666667a32 32 0 0 0 64 0v-170.666667a32.426667 32.426667 0 0 0-32-32z"  horiz-adv-x="1024" />

    
    <glyph glyph-name="b-39" unicode="&#59226;" d="M810.666667 0H213.333333a85.333333 85.333333 0 0 0-85.333333 85.333333v128a32.426667 32.426667 0 0 0 11.946667 25.173334L324.693333 384a269.653333 269.653333 0 0 0-32 320.853333l3.413334 5.973334A204.373333 204.373333 0 0 0 469.333333 810.666667h85.333334a204.373333 204.373333 0 0 0 173.653333-97.706667l3.413333-5.973333a269.653333 269.653333 0 0 0-32.426666-322.986667l184.746666-147.626667A32.426667 32.426667 0 0 0 896 213.333333v-128a85.333333 85.333333 0 0 0-85.333333-85.333333zM192 197.973333V85.333333a21.333333 21.333333 0 0 1 21.333333-21.333333h597.333334a21.333333 21.333333 0 0 1 21.333333 21.333333v112.64l-201.386667 160.853334a32.426667 32.426667 0 0 0-11.946666 25.173333 31.573333 31.573333 0 0 0 11.946666 24.746667 205.653333 205.653333 0 0 1 46.08 264.96l-3.84 5.973333A139.093333 139.093333 0 0 1 554.666667 746.666667h-85.333334a138.24 138.24 0 0 1-118.186666-66.986667l-3.84-5.973333a205.653333 205.653333 0 0 1 46.08-264.96 31.573333 31.573333 0 0 0 11.946666-24.746667 32.426667 32.426667 0 0 0-11.946666-25.173333zM576.426667 341.333333l-42.666667-63.573333 35.413333-71.68a20.053333 20.053333 0 0 0-4.266666-24.32l-45.653334-45.653333a10.666667 10.666667 0 0 0-15.36 0l-45.226666 45.653333a22.186667 22.186667 0 0 0-3.84 24.746667l36.266666 71.253333-42.666666 64.426667z"  horiz-adv-x="1024" />

    
    <glyph glyph-name="b-40" unicode="&#59227;" d="M298.666667-32H218.453333a85.333333 85.333333 0 0 0-85.333333 85.333333V672a85.333333 85.333333 0 0 0 85.333333 85.333333h533.333334a85.333333 85.333333 0 0 0 85.333333-85.333333v-69.12a32 32 0 0 0-31.573333-32 32.426667 32.426667 0 0 0-32.426667 32V672a21.333333 21.333333 0 0 1-21.333333 21.333333H218.453333a21.333333 21.333333 0 0 1-21.333333-21.333333v-618.666667a21.333333 21.333333 0 0 1 21.333333-21.333333H298.666667a32 32 0 0 0 0-64zM416 501.333333h-128a32 32 0 0 0 0 64h128a32 32 0 0 0 0-64zM416 373.333333h-128a32 32 0 0 0 0 64h128a32 32 0 0 0 0-64zM682.666667 394.666667a192 192 0 1 0-192-192 192.426667 192.426667 0 0 0 192 192m0 64a256 256 0 1 1 256-256 256 256 0 0 1-256 256zM673.706667 77.226667a52.906667 52.906667 0 0 0-37.546667 15.36l-75.52 75.52A32 32 0 0 0 605.866667 213.333333l67.84-67.84 128 128a31.573333 31.573333 0 0 0 45.226666 0 32 32 0 0 0 0-45.226666l-135.68-135.68a54.613333 54.613333 0 0 0-37.546666-15.36z"  horiz-adv-x="1024" />

    
    <glyph glyph-name="b-41" unicode="&#59228;" d="M554.666667 680.106667a21.333333 21.333333 0 0 0 21.333333-21.333334V64H213.333333a21.333333 21.333333 0 0 0-21.333333 21.333333V573.44a20.906667 20.906667 0 0 0 16.213333 20.48l341.333334 85.333333H554.666667m0 64a90.453333 90.453333 0 0 1-20.906667-2.56l-341.333333-85.333333A85.333333 85.333333 0 0 1 128 573.44V85.333333a85.333333 85.333333 0 0 1 85.333333-85.333333h426.666667V658.773333a85.333333 85.333333 0 0 1-85.333333 85.333334zM640 493.653333l201.386667-100.693333a21.333333 21.333333 0 0 0 11.946666-19.2V85.333333a21.333333 21.333333 0 0 0-21.333333-21.333333H640V493.653333M576 597.333333v-597.333333h256a85.333333 85.333333 0 0 1 85.333333 85.333333v288.426667a85.333333 85.333333 0 0 1-47.36 76.373333L576 597.333333zM384 181.333333a32.426667 32.426667 0 0 0-32 32v170.666667a32 32 0 0 0 64 0v-170.666667a32.426667 32.426667 0 0 0-32-32z"  horiz-adv-x="1024" />

    
    <glyph glyph-name="b-42" unicode="&#59229;" d="M512 490.666667A106.666667 106.666667 0 1 0 405.333333 384 106.666667 106.666667 0 0 0 512 490.666667M512 554.666667a170.666667 170.666667 0 1 1 170.666667-170.666667 170.666667 170.666667 0 0 1-170.666667 170.666667zM512 661.333333c170.666667 0 324.693333-185.173333 384-264.96a20.48 20.48 0 0 0 0-24.746666c-58.453333-79.786667-213.333333-264.96-384-264.96s-324.693333 185.173333-384 264.96a20.48 20.48 0 0 0 0 24.746666C187.306667 476.16 341.333333 661.333333 512 661.333333M512 725.333333C315.306667 725.333333 147.2 529.066667 77.226667 434.346667a85.333333 85.333333 0 0 1 0-100.693334C147.2 238.933333 315.306667 42.666667 512 42.666667s364.8 196.266667 434.773333 290.986666a85.333333 85.333333 0 0 1 0 100.693334C876.8 529.066667 708.693333 725.333333 512 725.333333z"  horiz-adv-x="1024" />

    
    <glyph glyph-name="b-43" unicode="&#59230;" d="M700.586667 689.493333a20.48 20.48 0 0 0 14.506666-5.973333l170.666667-161.706667a22.186667 22.186667 0 0 0 2.133333-28.586666l-85.333333-114.773334a60.586667 60.586667 0 0 1-11.52-26.88l-49.92-270.08a21.333333 21.333333 0 0 0-20.906667-17.493333H305.493333a21.333333 21.333333 0 0 0-20.906666 17.493333L234.666667 351.573333a63.146667 63.146667 0 0 1-11.946667 27.306667l-85.333333 112.213333a20.48 20.48 0 0 0 0 28.16L308.906667 682.666667a22.186667 22.186667 0 0 0 14.933333 5.973333 17.493333 17.493333 0 0 0 8.106667 0l58.026666-23.893333A323.84 323.84 0 0 1 512 640a323.84 323.84 0 0 1 122.026667 23.893333l58.453333 24.32a24.746667 24.746667 0 0 0 8.106667 0m0 64a85.333333 85.333333 0 0 1-32.426667-6.4l-58.88-24.32a256 256 0 0 0-97.28-17.92 256 256 0 0 0-97.28 19.2L356.266667 746.666667a85.333333 85.333333 0 0 1-91.733334-17.493334l-170.666666-163.84A85.333333 85.333333 0 0 1 85.333333 452.266667L170.666667 341.333333l51.2-271.36a85.333333 85.333333 0 0 1 85.333333-69.973333h413.013333a85.333333 85.333333 0 0 1 85.333334 69.973333L853.333333 341.333333l85.333334 114.773334a85.333333 85.333333 0 0 1-9.386667 113.066666l-170.666667 161.706667a85.333333 85.333333 0 0 1-58.88 23.893333zM597.333333 352a32.426667 32.426667 0 0 0-32 32v85.333333a32 32 0 0 0 64 0v-85.333333a32.426667 32.426667 0 0 0-32-32z"  horiz-adv-x="1024" />

    
    <glyph glyph-name="b-44" unicode="&#59231;" d="M855.466667 405.333333a20.906667 20.906667 0 0 0 17.493333-9.386666 20.053333 20.053333 0 0 0 2.133333-20.053334l-102.4-256a21.333333 21.333333 0 0 0-19.626666-13.226666H213.333333a20.906667 20.906667 0 0 0-17.493333 9.386666 20.053333 20.053333 0 0 0 0 20.053334l102.4 256a21.333333 21.333333 0 0 0 19.626667 13.226666h541.866666m0 64H313.6a85.333333 85.333333 0 0 1-78.933333-53.76l-102.4-256A85.333333 85.333333 0 0 1 213.333333 42.666667h541.866667a85.333333 85.333333 0 0 1 78.933333 53.76l102.4 256a85.333333 85.333333 0 0 1-81.066666 116.906666zM170.666667 106.666667a21.333333 21.333333 0 0 0-21.333334 21.333333V640a21.333333 21.333333 0 0 0 21.333334 21.333333h205.226666a22.186667 22.186667 0 0 0 17.493334-8.96l66.56-92.586666A64.853333 64.853333 0 0 1 512 533.333333h213.333333a21.333333 21.333333 0 0 0 21.333334-21.333333v-85.333333H810.666667V512a85.333333 85.333333 0 0 1-85.333334 85.333333h-213.333333l-66.986667 92.586667A85.333333 85.333333 0 0 1 375.893333 725.333333H170.666667a85.333333 85.333333 0 0 1-85.333334-85.333333v-512a85.333333 85.333333 0 0 1 85.333334-85.333333h469.333333v64zM725.333333 224h-128a32 32 0 0 0 0 64h128a32 32 0 0 0 0-64z"  horiz-adv-x="1024" />

    
    <glyph glyph-name="b-45" unicode="&#59232;" d="M631.466667 311.466667a62.72 62.72 0 0 0 52.053333-27.306667 64.853333 64.853333 0 0 1 52.053333-26.88 57.173333 57.173333 0 0 1 14.933334 0h8.96a37.973333 37.973333 0 0 0 37.546666-34.56 64.853333 64.853333 0 0 1 34.986667-50.346667 76.8 76.8 0 0 0-34.133333-145.493333h-230.4a77.226667 77.226667 0 0 0-76.8 76.8 75.946667 75.946667 0 0 0 42.666666 68.693333 63.573333 63.573333 0 0 1 34.986667 64.853334v10.24a64 64 0 0 0 64 64m0 64a128 128 0 0 1-128-128v-14.933334a140.8 140.8 0 0 1 63.146667-266.666666h230.4a140.8 140.8 0 0 1 62.72 266.666666 101.546667 101.546667 0 0 1-101.12 91.733334 110.933333 110.933333 0 0 1-23.893334-2.986667 128 128 0 0 1-104.106666 54.186667zM298.666667-32H218.453333a85.333333 85.333333 0 0 0-85.333333 85.333333V672a85.333333 85.333333 0 0 0 85.333333 85.333333h533.333334a85.333333 85.333333 0 0 0 85.333333-85.333333v-69.12a32 32 0 0 0-31.573333-32 32.426667 32.426667 0 0 0-32.426667 32V672a21.333333 21.333333 0 0 1-21.333333 21.333333H218.453333a21.333333 21.333333 0 0 1-21.333333-21.333333v-618.666667a21.333333 21.333333 0 0 1 21.333333-21.333333H298.666667a32 32 0 0 0 0-64zM416 501.333333h-128a32 32 0 0 0 0 64h128a32 32 0 0 0 0-64zM416 373.333333h-128a32 32 0 0 0 0 64h128a32 32 0 0 0 0-64z"  horiz-adv-x="1024" />

    
    <glyph glyph-name="b-46" unicode="&#59233;" d="M384 202.666667m32 0l192 0q32 0 32-32l0 0q0-32-32-32l-192 0q-32 0-32 32l0 0q0 32 32 32ZM810.666667 704a21.333333 21.333333 0 0 0 21.333333-21.333333v-597.333334a21.333333 21.333333 0 0 0-21.333333-21.333333H213.333333a21.333333 21.333333 0 0 0-21.333333 21.333333V682.666667a21.333333 21.333333 0 0 0 21.333333 21.333333h597.333334M810.666667 768H213.333333a85.333333 85.333333 0 0 1-85.333333-85.333333v-597.333334a85.333333 85.333333 0 0 1 85.333333-85.333333h597.333334a85.333333 85.333333 0 0 1 85.333333 85.333333V682.666667a85.333333 85.333333 0 0 1-85.333333 85.333333z"  horiz-adv-x="1024" />

    
    <glyph glyph-name="b-47" unicode="&#59234;" d="M554.666667 373.333333m32 0l149.333333 0q32 0 32-32l0 0q0-32-32-32l-149.333333 0q-32 0-32 32l0 0q0 32 32 32ZM375.893333 661.333333a22.186667 22.186667 0 0 0 17.493334-8.96l66.56-92.586666A64.853333 64.853333 0 0 1 512 533.333333h341.333333a21.333333 21.333333 0 0 0 21.333334-21.333333v-384a21.333333 21.333333 0 0 0-21.333334-21.333333H170.666667a21.333333 21.333333 0 0 0-21.333334 21.333333V640a21.333333 21.333333 0 0 0 21.333334 21.333333h205.226666m0 64H170.666667a85.333333 85.333333 0 0 1-85.333334-85.333333v-512a85.333333 85.333333 0 0 1 85.333334-85.333333h682.666666a85.333333 85.333333 0 0 1 85.333334 85.333333V512a85.333333 85.333333 0 0 1-85.333334 85.333333h-341.333333l-66.986667 92.586667A85.333333 85.333333 0 0 1 375.893333 725.333333z"  horiz-adv-x="1024" />

    
    <glyph glyph-name="b-48" unicode="&#59235;" d="M213.333333 661.333333A64 64 0 1 0 149.333333 597.333333 64 64 0 0 0 213.333333 661.333333M213.333333 725.333333a128 128 0 1 1 128-128 128 128 0 0 1-128 128zM917.333333 565.333333h-597.333333a32 32 0 0 0 0 64h597.333333a32 32 0 0 0 0-64zM917.333333 394.666667h-256a32 32 0 0 0 0 64h256a32 32 0 0 0 0-64zM917.333333 53.333333h-256a32 32 0 0 0 0 64h256a32 32 0 0 0 0-64zM213.333333 320A64 64 0 1 0 149.333333 256 64 64 0 0 0 213.333333 320M213.333333 384a128 128 0 1 1 128-128 128 128 0 0 1-128 128zM917.333333 224h-597.333333a32 32 0 0 0 0 64h597.333333a32 32 0 0 0 0-64z"  horiz-adv-x="1024" />

    
    <glyph glyph-name="b-49" unicode="&#59236;" d="M512 734.293333a21.333333 21.333333 0 0 0 10.24-2.56l298.666667-165.973333a21.76 21.76 0 0 0 11.093333-18.773333v-196.693334a191.146667 191.146667 0 0 0-85.333333-159.573333L523.946667 42.666667a20.48 20.48 0 0 0-23.893334 0L277.333333 190.72a191.146667 191.146667 0 0 0-85.333333 159.573333V546.986667a21.76 21.76 0 0 0 11.093333 18.773333l298.666667 165.973333a21.333333 21.333333 0 0 0 10.24 2.56m0 64a85.333333 85.333333 0 0 1-42.666667-10.666666L170.666667 621.653333a85.333333 85.333333 0 0 1-42.666667-74.666666v-196.693334a256 256 0 0 1 113.92-213.333333l222.72-148.48a85.333333 85.333333 0 0 1 94.72 0l222.72 148.48a256 256 0 0 1 113.92 213.333333V546.986667a85.333333 85.333333 0 0 1-42.666667 74.666666l-298.666666 165.973334a85.333333 85.333333 0 0 1-42.666667 10.666666zM341.333333 416m32 0l277.333334 0q32 0 32-32l0 0q0-32-32-32l-277.333334 0q-32 0-32 32l0 0q0 32 32 32ZM480 213.333333m0 32l0 277.333334q0 32 32 32l0 0q32 0 32-32l0-277.333334q0-32-32-32l0 0q-32 0-32 32Z"  horiz-adv-x="1024" />

    
    <glyph glyph-name="b-50" unicode="&#59237;" d="M469.333333 288m32 0l277.333334 0q32 0 32-32l0 0q0-32-32-32l-277.333334 0q-32 0-32 32l0 0q0 32 32 32ZM853.333333 661.333333a21.333333 21.333333 0 0 0 21.333334-21.333333v-512a21.333333 21.333333 0 0 0-21.333334-21.333333H170.666667a21.333333 21.333333 0 0 0-21.333334 21.333333V640a21.333333 21.333333 0 0 0 21.333334 21.333333h682.666666M853.333333 725.333333H170.666667a85.333333 85.333333 0 0 1-85.333334-85.333333v-512a85.333333 85.333333 0 0 1 85.333334-85.333333h682.666666a85.333333 85.333333 0 0 1 85.333334 85.333333V640a85.333333 85.333333 0 0 1-85.333334 85.333333zM128 533.333333h768V469.333333H128z"  horiz-adv-x="1024" />

    
    <glyph glyph-name="b-51" unicode="&#59238;" d="M725.333333 20.053333a32 32 0 0 0-26.88 14.506667 32.853333 32.853333 0 0 0 9.386667 42.666667 362.666667 362.666667 0 1 1-392.106667 0 32.426667 32.426667 0 0 0 9.813334-42.666667 32 32 0 0 0-42.666667-9.386667 426.666667 426.666667 0 1 0 461.653333 0 29.866667 29.866667 0 0 0-19.2-5.12zM480 640m32 0l0 0q32 0 32-32l0-192q0-32-32-32l0 0q-32 0-32 32l0 192q0 32 32 32ZM512 372.48m-64 0a64 64 0 1 1 128 0 64 64 0 1 1-128 0Z"  horiz-adv-x="1024" />

    
    <glyph glyph-name="b-52" unicode="&#59239;" d="M512 490.666667A106.666667 106.666667 0 1 0 405.333333 384 106.666667 106.666667 0 0 0 512 490.666667M512 554.666667a170.666667 170.666667 0 1 1 170.666667-170.666667 170.666667 170.666667 0 0 1-170.666667 170.666667zM629.76 704a21.333333 21.333333 0 0 0 19.2-11.946667l61.866667-123.306666a61.866667 61.866667 0 0 1 28.586666-28.586667l123.306667-61.866667a21.333333 21.333333 0 0 0 11.946667-19.2V128a21.333333 21.333333 0 0 0-21.333334-21.333333H170.666667a21.333333 21.333333 0 0 0-21.333334 21.333333v331.093333a21.333333 21.333333 0 0 0 11.946667 19.2l123.306667 61.866667a61.866667 61.866667 0 0 1 28.586666 28.586667l61.866667 123.306666a21.333333 21.333333 0 0 0 19.2 11.946667h235.52m0 64H394.24a85.333333 85.333333 0 0 1-76.373333-47.36L256 597.333333 132.693333 535.466667A85.333333 85.333333 0 0 1 85.333333 459.093333V128a85.333333 85.333333 0 0 1 85.333334-85.333333h682.666666a85.333333 85.333333 0 0 1 85.333334 85.333333v331.093333a85.333333 85.333333 0 0 1-47.36 76.373334L768 597.333333l-61.866667 123.306667A85.333333 85.333333 0 0 1 629.76 768z"  horiz-adv-x="1024" />

    
    <glyph glyph-name="b-53" unicode="&#59240;" d="M251.733333 314.026667a33.706667 33.706667 0 0 0-22.613333 9.386666 32 32 0 0 0 0 45.226667L373.333333 512a53.333333 53.333333 0 0 0 75.52 0l120.746667-120.32 180.053333 180.053333a32 32 0 1 0 45.226667-45.226666L607.146667 341.333333a53.333333 53.333333 0 0 0-75.52 0l-120.746667 119.04-136.533333-136.96a32.853333 32.853333 0 0 0-22.613334-9.386666zM810.666667 704a21.333333 21.333333 0 0 0 21.333333-21.333333v-469.333334a21.333333 21.333333 0 0 0-21.333333-21.333333H213.333333a21.333333 21.333333 0 0 0-21.333333 21.333333V682.666667a21.333333 21.333333 0 0 0 21.333333 21.333333h597.333334M810.666667 768H213.333333a85.333333 85.333333 0 0 1-85.333333-85.333333v-469.333334a85.333333 85.333333 0 0 1 85.333333-85.333333h597.333334a85.333333 85.333333 0 0 1 85.333333 85.333333V682.666667a85.333333 85.333333 0 0 1-85.333333 85.333333zM298.666667 74.666667m32 0l362.666666 0q32 0 32-32l0 0q0-32-32-32l-362.666666 0q-32 0-32 32l0 0q0 32 32 32Z"  horiz-adv-x="1024" />

    
    <glyph glyph-name="b-54" unicode="&#59241;" d="M512 717.653333a21.333333 21.333333 0 0 0 14.08-5.12l298.666667-265.386666a22.186667 22.186667 0 0 0 7.253333-16.213334V85.333333a21.333333 21.333333 0 0 0-21.333333-21.333333H213.333333a21.333333 21.333333 0 0 0-21.333333 21.333333v345.6a22.186667 22.186667 0 0 0 7.253333 16.213334l298.666667 265.386666a21.333333 21.333333 0 0 0 14.08 5.12m0 64a85.333333 85.333333 0 0 1-56.746667-21.333333l-298.666666-265.386667A85.333333 85.333333 0 0 1 128 430.933333V85.333333a85.333333 85.333333 0 0 1 85.333333-85.333333h597.333334a85.333333 85.333333 0 0 1 85.333333 85.333333v345.6a85.333333 85.333333 0 0 1-28.586667 64l-298.666666 265.386667a85.333333 85.333333 0 0 1-56.746667 21.333333zM640 309.333333H384a32 32 0 0 0 0 64h256a32 32 0 0 0 0-64zM640 181.333333H384a32 32 0 0 0 0 64h256a32 32 0 0 0 0-64zM512 96a32.426667 32.426667 0 0 0-32 32v213.333333a32 32 0 0 0 9.386667 22.613334l128 128a32 32 0 0 0 45.226666-45.226667l-118.613333-118.613333V128a32.426667 32.426667 0 0 0-32-32zM471.466667 384a33.706667 33.706667 0 0 0-22.613334 9.386667l-60.16 62.293333a32 32 0 0 0 45.226667 45.226667l60.16-60.586667a31.573333 31.573333 0 0 0 0-45.226667 32 32 0 0 0-22.613333-11.093333z"  horiz-adv-x="1024" />

    
    <glyph glyph-name="b-55" unicode="&#59242;" d="M298.666667-32H218.453333a85.333333 85.333333 0 0 0-85.333333 85.333333V672a85.333333 85.333333 0 0 0 85.333333 85.333333h533.333334a85.333333 85.333333 0 0 0 85.333333-85.333333v-69.12a32 32 0 0 0-31.573333-32 32.426667 32.426667 0 0 0-32.426667 32V672a21.333333 21.333333 0 0 1-21.333333 21.333333H218.453333a21.333333 21.333333 0 0 1-21.333333-21.333333v-618.666667a21.333333 21.333333 0 0 1 21.333333-21.333333H298.666667a32 32 0 0 0 0-64zM416 501.333333h-128a32 32 0 0 0 0 64h128a32 32 0 0 0 0-64zM416 373.333333h-128a32 32 0 0 0 0 64h128a32 32 0 0 0 0-64zM682.666667 437.333333a64 64 0 1 0-64-64 64 64 0 0 0 64 64m0 64a128 128 0 1 1 128-128 128 128 0 0 1-128 128zM832 106.666667a21.333333 21.333333 0 0 0 21.333333-21.333334v-64h-341.333333V85.333333a21.333333 21.333333 0 0 0 21.333333 21.333334h298.666667m0 64h-298.666667a85.333333 85.333333 0 0 1-85.333333-85.333334v-85.333333a42.666667 42.666667 0 0 1 42.666667-42.666667h384a42.666667 42.666667 0 0 1 42.666666 42.666667v85.333333a85.333333 85.333333 0 0 1-85.333333 85.333334zM650.666667 256h64v-85.333333h-64z"  horiz-adv-x="1024" />

    
    <glyph glyph-name="b-56" unicode="&#59243;" d="M298.666667 565.333333m32 0l277.333333 0q32 0 32-32l0 0q0-32-32-32l-277.333333 0q-32 0-32 32l0 0q0 32 32 32ZM298.666667 362.666667m32 0l277.333333 0q32 0 32-32l0 0q0-32-32-32l-277.333333 0q-32 0-32 32l0 0q0 32 32 32ZM715.917737 203.915398m22.627417-22.627417l119.774461-119.774461q22.627417-22.627417 0-45.254834l0 0q-22.627417-22.627417-45.254834 0l-119.774461 119.774461q-22.627417 22.627417 0 45.254834l0 0q22.627417 22.627417 45.254834 0ZM469.333333 746.666667A320 320 0 1 0 149.333333 426.666667 320 320 0 0 0 469.333333 746.666667M469.333333 810.666667a384 384 0 1 1 384-384 384 384 0 0 1-384 384z"  horiz-adv-x="1024" />

    
    <glyph glyph-name="b-57" unicode="&#59244;" d="M699.306667 719.36a21.76 21.76 0 0 0 15.36-6.4l121.173333-121.173333a21.333333 21.333333 0 0 0 0-30.293334L394.666667 120.32l-217.173334-65.706667 65.706667 217.173334L682.666667 712.96a20.48 20.48 0 0 0 14.933333 6.4m0 64a85.333333 85.333333 0 0 1-57.6-25.173333L186.453333 305.92l-85.333333-279.466667a42.666667 42.666667 0 0 1 42.666667-47.36h5.546666l279.466667 85.333334 452.266667 452.266666a85.333333 85.333333 0 0 1 0 121.173334l-121.173334 120.32a85.333333 85.333333 0 0 1-60.586666 25.173333zM293.12 361.386667L142.506667 512a117.76 117.76 0 0 0 0 165.973333l75.52 75.52a117.333333 117.333333 0 0 0 165.973333 0l150.613333-150.613333-45.226666-45.226667L338.346667 708.266667a52.906667 52.906667 0 0 1-75.093334 0L187.733333 632.746667a52.906667 52.906667 0 0 1 0-75.093334l150.613334-151.04zM725.333333-20.053333a117.76 117.76 0 0 0-85.333333 34.56l-150.613333 150.613333 45.226666 45.226667 151.04-150.613334a52.906667 52.906667 0 0 1 75.093334 0l75.52 75.52a52.906667 52.906667 0 0 1 0 75.093334l-150.613334 151.04 45.226667 45.226666L881.493333 256a117.76 117.76 0 0 0 0-165.973333l-75.52-75.52a116.053333 116.053333 0 0 0-80.64-34.56zM240.64 442.453333a30.293333 30.293333 0 0 0-22.613333 9.386667 31.573333 31.573333 0 0 0 0 45.226667l60.16 60.586666a32 32 0 0 0 45.226666 0 32.853333 32.853333 0 0 0 0-45.653333l-60.16-60.16a31.573333 31.573333 0 0 0-22.613333-9.386667zM602.453333 80.64a31.573333 31.573333 0 0 0-22.613333 9.386667 32 32 0 0 0 0 45.226666L640 195.413333a32.853333 32.853333 0 0 0 45.653333 0 32 32 0 0 0 0-45.226666l-60.586666-60.16a31.573333 31.573333 0 0 0-22.613334-9.386667zM600.533333 659.925333l181.034667-180.992-45.226667-45.269333-181.034666 180.992z"  horiz-adv-x="1024" />

    
    <glyph glyph-name="b-58" unicode="&#59245;" d="M715.917737 203.915398m22.627417-22.627417l119.774461-119.774461q22.627417-22.627417 0-45.254834l0 0q-22.627417-22.627417-45.254834 0l-119.774461 119.774461q-22.627417 22.627417 0 45.254834l0 0q22.627417 22.627417 45.254834 0ZM469.333333 746.666667A320 320 0 1 0 149.333333 426.666667 320 320 0 0 0 469.333333 746.666667M469.333333 810.666667a384 384 0 1 1 384-384 384 384 0 0 1-384 384zM426.666667 195.84a29.866667 29.866667 0 0 0-10.666667 2.133333 287.573333 287.573333 0 0 0-175.786667 175.36 32 32 0 0 0 60.586667 21.333334 225.28 225.28 0 0 1 136.533333-136.533334 32 32 0 0 0-10.666666-62.293333z"  horiz-adv-x="1024" />

    
    <glyph glyph-name="b-59" unicode="&#59246;" d="M384 352m32 0l192 0q32 0 32-32l0 0q0-32-32-32l-192 0q-32 0-32 32l0 0q0 32 32 32ZM480 448m32 0l0 0q32 0 32-32l0-192q0-32-32-32l0 0q-32 0-32 32l0 192q0 32 32 32ZM375.893333 661.333333a22.186667 22.186667 0 0 0 17.493334-8.96l66.56-92.586666A64.853333 64.853333 0 0 1 512 533.333333h341.333333a21.333333 21.333333 0 0 0 21.333334-21.333333v-384a21.333333 21.333333 0 0 0-21.333334-21.333333H170.666667a21.333333 21.333333 0 0 0-21.333334 21.333333V640a21.333333 21.333333 0 0 0 21.333334 21.333333h205.226666m0 64H170.666667a85.333333 85.333333 0 0 1-85.333334-85.333333v-512a85.333333 85.333333 0 0 1 85.333334-85.333333h682.666666a85.333333 85.333333 0 0 1 85.333334 85.333333V512a85.333333 85.333333 0 0 1-85.333334 85.333333h-341.333333l-66.986667 92.586667A85.333333 85.333333 0 0 1 375.893333 725.333333z"  horiz-adv-x="1024" />

    
    <glyph glyph-name="b-60" unicode="&#59247;" d="M341.333333 458.666667m32 0l277.333334 0q32 0 32-32l0 0q0-32-32-32l-277.333334 0q-32 0-32 32l0 0q0 32 32 32ZM810.666667 704a21.333333 21.333333 0 0 0 21.333333-21.333333v-512a21.333333 21.333333 0 0 0-21.333333-21.333334h-298.666667a63.573333 63.573333 0 0 1-42.666667-16.213333l-85.333333-75.946667V85.333333a64 64 0 0 1-64 64H213.333333a21.333333 21.333333 0 0 0-21.333333 21.333334V682.666667a21.333333 21.333333 0 0 0 21.333333 21.333333h597.333334M810.666667 768H213.333333a85.333333 85.333333 0 0 1-85.333333-85.333333v-512a85.333333 85.333333 0 0 1 85.333333-85.333334h106.666667v-67.84a45.653333 45.653333 0 0 1 48.213333-42.666666 49.066667 49.066667 0 0 1 33.706667 12.8L512 85.333333h298.666667a85.333333 85.333333 0 0 1 85.333333 85.333334V682.666667a85.333333 85.333333 0 0 1-85.333333 85.333333z"  horiz-adv-x="1024" />

    
    <glyph glyph-name="b-61" unicode="&#59248;" d="M512 490.666667A106.666667 106.666667 0 1 0 405.333333 384 106.666667 106.666667 0 0 0 512 490.666667M512 554.666667a170.666667 170.666667 0 1 1 170.666667-170.666667 170.666667 170.666667 0 0 1-170.666667 170.666667zM682.666667 704a20.906667 20.906667 0 0 0 18.346666-10.666667l172.8-298.666666a23.466667 23.466667 0 0 0 0-21.333334l-172.8-298.666666a20.906667 20.906667 0 0 0-18.346666-10.666667H341.333333a20.906667 20.906667 0 0 0-18.346666 10.666667l-172.8 298.666666a23.466667 23.466667 0 0 0 0 21.333334l172.8 298.666666A20.906667 20.906667 0 0 0 341.333333 704h341.333334M682.666667 768H341.333333a85.333333 85.333333 0 0 1-75.52-42.666667l-170.666666-298.666666a85.333333 85.333333 0 0 1 0-85.333334l170.666666-298.666666A85.333333 85.333333 0 0 1 341.333333 0h341.333334a85.333333 85.333333 0 0 1 73.813333 42.666667l170.666667 298.666666a85.333333 85.333333 0 0 1 0 85.333334l-170.666667 298.666666A85.333333 85.333333 0 0 1 682.666667 768z"  horiz-adv-x="1024" />

    
    <glyph glyph-name="b-62" unicode="&#59249;" d="M512 746.666667c200.106667 0 362.666667-143.36 362.666667-320s-162.56-320-362.666667-320a65.706667 65.706667 0 0 1-38.4-12.8L405.333333 42.666667v32a63.573333 63.573333 0 0 1-40.533333 59.306666A321.706667 321.706667 0 0 0 149.333333 426.666667c0 176.64 162.56 320 362.666667 320M512 810.666667C276.48 810.666667 85.333333 640 85.333333 426.666667a384 384 0 0 1 256-352V0a42.666667 42.666667 0 0 1 42.666667-42.666667 42.666667 42.666667 0 0 1 25.6 8.533334L512 42.666667c235.52 0 426.666667 170.666667 426.666667 384s-191.146667 384-426.666667 384zM512 199.253333a273.493333 273.493333 0 0 0-238.933333 125.866667 32 32 0 0 0 55.466666 32.426667 210.773333 210.773333 0 0 1 183.466667-94.293334 32 32 0 0 0 0-64z"  horiz-adv-x="1024" />

    
    <glyph glyph-name="b-63" unicode="&#59250;" d="M512 734.293333a21.333333 21.333333 0 0 0 10.24-2.56l298.666667-165.973333a21.76 21.76 0 0 0 11.093333-18.773333v-196.693334a191.146667 191.146667 0 0 0-85.333333-159.573333L523.946667 42.666667a20.48 20.48 0 0 0-23.893334 0L277.333333 190.72a191.146667 191.146667 0 0 0-85.333333 159.573333V546.986667a21.76 21.76 0 0 0 11.093333 18.773333l298.666667 165.973333a21.333333 21.333333 0 0 0 10.24 2.56m0 64a85.333333 85.333333 0 0 1-42.666667-10.666666L170.666667 621.653333a85.333333 85.333333 0 0 1-42.666667-74.666666v-196.693334a256 256 0 0 1 113.92-213.333333l222.72-148.48a85.333333 85.333333 0 0 1 94.72 0l222.72 148.48a256 256 0 0 1 113.92 213.333333V546.986667a85.333333 85.333333 0 0 1-42.666667 74.666666l-298.666666 165.973334a85.333333 85.333333 0 0 1-42.666667 10.666666zM506.88 281.173333a54.613333 54.613333 0 0 0-37.973333 15.36l-105.386667 105.813334a31.573333 31.573333 0 0 0 0 45.226666 32 32 0 0 0 45.226667 0l98.133333-98.133333 158.293333 158.293333a31.573333 31.573333 0 0 0 45.226667 0 32 32 0 0 0 0-45.226666l-165.973333-165.973334a52.906667 52.906667 0 0 0-37.546667-15.36z"  horiz-adv-x="1024" />

    
    <glyph glyph-name="b-64" unicode="&#59251;" d="M768 426.666667a21.333333 21.333333 0 0 0 21.333333-21.333334v-341.333333a21.333333 21.333333 0 0 0-21.333333-21.333333H256a21.333333 21.333333 0 0 0-21.333333 21.333333v341.333333A21.333333 21.333333 0 0 0 256 426.666667h512m0 64H256a85.333333 85.333333 0 0 1-85.333333-85.333334v-341.333333a85.333333 85.333333 0 0 1 85.333333-85.333333h512a85.333333 85.333333 0 0 1 85.333333 85.333333v341.333333a85.333333 85.333333 0 0 1-85.333333 85.333334zM757.333333 480h-64v42.666667a181.333333 181.333333 0 0 1-362.666666 0v-42.666667h-64v42.666667a245.333333 245.333333 0 0 0 490.666666 0zM512 160a32.426667 32.426667 0 0 0-32 32v85.333333a32 32 0 0 0 64 0v-85.333333a32.426667 32.426667 0 0 0-32-32z"  horiz-adv-x="1024" />

    
    <glyph glyph-name="b-65" unicode="&#59252;" d="M512 746.666667A362.666667 362.666667 0 1 0 149.333333 384 363.093333 363.093333 0 0 0 512 746.666667M512 810.666667a426.666667 426.666667 0 1 1 426.666667-426.666667A426.666667 426.666667 0 0 1 512 810.666667zM640 394.666667H384a32 32 0 0 0 0 64h256a32 32 0 0 0 0-64zM640 266.666667H384a32 32 0 0 0 0 64h256a32 32 0 0 0 0-64zM512 181.333333a32.426667 32.426667 0 0 0-32 32v213.333334a32 32 0 0 0 9.386667 22.613333l128 128a32 32 0 0 0 45.226666-45.226667l-118.613333-118.613333V213.333333a32.426667 32.426667 0 0 0-32-32zM516.266667 403.2a31.573333 31.573333 0 0 0-22.613334 9.386667l-119.466666 119.466666a31.573333 31.573333 0 0 0 0 45.226667 32 32 0 0 0 45.226666 0l119.466667-119.466667a32 32 0 0 0 0-45.226666 31.573333 31.573333 0 0 0-22.613333-9.386667z"  horiz-adv-x="1024" />

    
    <glyph glyph-name="b-66" unicode="&#59253;" d="M725.333333 746.666667a21.333333 21.333333 0 0 0 21.333334-21.333334v-682.666666a21.333333 21.333333 0 0 0-21.333334-21.333334H298.666667a21.333333 21.333333 0 0 0-21.333334 21.333334V725.333333a21.333333 21.333333 0 0 0 21.333334 21.333334h426.666666M725.333333 810.666667H298.666667a85.333333 85.333333 0 0 1-85.333334-85.333334v-682.666666a85.333333 85.333333 0 0 1 85.333334-85.333334h426.666666a85.333333 85.333333 0 0 1 85.333334 85.333334V725.333333a85.333333 85.333333 0 0 1-85.333334 85.333334zM576 74.666667h-128a32 32 0 0 0 0 64h128a32 32 0 0 0 0-64z"  horiz-adv-x="1024" />

    
    <glyph glyph-name="b-67" unicode="&#59254;" d="M541.866667 746.666667a192 192 0 0 0 190.72-168.106667l48.213333-386.56H243.2l48.213333 386.56A192 192 0 0 0 482.133333 746.666667h59.733334m0 64h-59.733334a256 256 0 0 1-256-224.426667L170.666667 128h682.666666L796.16 586.24A256 256 0 0 1 541.866667 810.666667zM366.933333 301.226667h-3.84a32 32 0 0 0-27.733333 35.84l25.173333 201.813333a32 32 0 0 0 35.84 27.733333 31.573333 31.573333 0 0 0 27.733334-35.413333l-25.6-202.24a31.573333 31.573333 0 0 0-31.573334-27.733333zM906.666667 192H117.333333a32 32 0 0 1 0-64h789.333334a32 32 0 0 1 0 64zM512 0a160 160 0 0 0-160 160h64a96 96 0 0 1 192 0h64A160 160 0 0 0 512 0z"  horiz-adv-x="1024" />

    
    <glyph glyph-name="b-68" unicode="&#59255;" d="M512 117.333333m32 0l277.333333 0q32 0 32-32l0 0q0-32-32-32l-277.333333 0q-32 0-32 32l0 0q0 32 32 32ZM714.24 758.186667a21.76 21.76 0 0 0 15.36-6.4l121.173333-121.173334a21.333333 21.333333 0 0 0 0-30.293333L410.026667 159.146667l-217.6-65.706667 65.706666 217.6L699.306667 752.213333a20.48 20.48 0 0 0 14.933333 5.973334m0 64a85.333333 85.333333 0 0 1-60.16-24.746667L201.386667 344.746667l-85.333334-279.04a42.666667 42.666667 0 0 1 42.666667-47.786667h4.693333l279.04 85.333333L896 554.666667a85.333333 85.333333 0 0 1 0 120.746666l-121.173333 121.6a85.333333 85.333333 0 0 1-60.586667 25.173334zM601.6 683.946667l-45.226667-45.226667 181.333334-181.76 45.653333 45.226667-181.76 181.76z"  horiz-adv-x="1024" />

    
    <glyph glyph-name="b-69" unicode="&#59256;" d="M768 746.666667a21.333333 21.333333 0 0 0 21.333333-21.333334v-481.28a20.906667 20.906667 0 0 0-5.12-13.653333l-167.68-201.386667a22.613333 22.613333 0 0 0-16.64-7.68H256a21.333333 21.333333 0 0 0-21.333333 21.333334V725.333333a21.333333 21.333333 0 0 0 21.333333 21.333334h512M768 810.666667H256a85.333333 85.333333 0 0 1-85.333333-85.333334v-682.666666a85.333333 85.333333 0 0 1 85.333333-85.333334h343.893333a85.333333 85.333333 0 0 1 65.706667 30.72l168.106667 201.386667a85.333333 85.333333 0 0 1 19.626666 54.613333V725.333333a85.333333 85.333333 0 0 1-85.333333 85.333334zM380.586667 266.666667a32 32 0 0 0-26.453334 13.653333l-60.586666 85.333333a32.853333 32.853333 0 0 0 0 37.12l60.16 85.333334a32.426667 32.426667 0 0 0 42.666666 7.253333 31.573333 31.573333 0 0 0 7.68-42.666667L359.253333 384l47.36-68.693333a32.426667 32.426667 0 0 0-8.106666-42.666667 30.72 30.72 0 0 0-17.92-5.973333zM643.413333 266.666667a30.72 30.72 0 0 0-17.92 5.546666 32.426667 32.426667 0 0 0-8.106666 42.666667L664.746667 384l-47.36 66.986667a31.573333 31.573333 0 0 0 7.68 42.666666 32.426667 32.426667 0 0 0 42.666666-7.253333l60.16-85.333333a32.853333 32.853333 0 0 0 0-37.12l-60.586666-85.333334a32 32 0 0 0-23.893334-11.946666zM469.333333 266.666667a32.426667 32.426667 0 0 0-14.08 3.413333 31.146667 31.146667 0 0 0-14.506666 42.666667l85.333333 170.666666a32 32 0 1 0 57.173333-28.16l-85.333333-170.666666a31.573333 31.573333 0 0 0-28.586667-17.92z"  horiz-adv-x="1024" />

    
    <glyph glyph-name="b-70" unicode="&#59257;" d="M810.666667 704a21.333333 21.333333 0 0 0 21.333333-21.333333v-597.333334a21.333333 21.333333 0 0 0-21.333333-21.333333H213.333333a21.333333 21.333333 0 0 0-21.333333 21.333333V682.666667a21.333333 21.333333 0 0 0 21.333333 21.333333h597.333334M810.666667 768H213.333333a85.333333 85.333333 0 0 1-85.333333-85.333333v-597.333334a85.333333 85.333333 0 0 1 85.333333-85.333333h597.333334a85.333333 85.333333 0 0 1 85.333333 85.333333V682.666667a85.333333 85.333333 0 0 1-85.333333 85.333333zM170.666667 565.333333h682.666666v-64H170.666667zM373.333333 213.333333a32.426667 32.426667 0 0 0-32 32v170.666667a32 32 0 0 0 64 0v-170.666667a32.426667 32.426667 0 0 0-32-32zM256 330.666667a32.426667 32.426667 0 0 0 32 32h170.666667a32 32 0 0 0 0-64h-170.666667a32.426667 32.426667 0 0 0-32 32zM736 224h-128a32 32 0 0 0 0 64h128a32 32 0 0 0 0-64zM736 106.666667h-128a32 32 0 0 0 0 64h128a32 32 0 0 0 0-64z"  horiz-adv-x="1024" />

    
    <glyph glyph-name="b-71" unicode="&#59258;" d="M618.666667 706.986667v-645.973334l-334.08 166.826667A61.44 61.44 0 0 1 256 234.666667H170.666667a21.333333 21.333333 0 0 0-21.333334 21.333333V512a21.333333 21.333333 0 0 0 21.333334 21.333333h85.333333a61.44 61.44 0 0 1 28.586667 6.826667l334.08 166.826667m21.333333 77.226666a42.666667 42.666667 0 0 1-19.2-4.266666L256 597.333333H170.666667a85.333333 85.333333 0 0 1-85.333334-85.333333v-256a85.333333 85.333333 0 0 1 85.333334-85.333333h85.333333l364.8-182.613334a42.666667 42.666667 0 0 1 19.2-4.266666 42.666667 42.666667 0 0 1 42.666667 42.666666V741.546667a42.666667 42.666667 0 0 1-42.666667 42.666666zM831.146667 138.666667a30.293333 30.293333 0 0 0-17.493334 5.546666 31.573333 31.573333 0 0 0-8.96 42.666667 351.573333 351.573333 0 0 1 0 392.106667 32 32 0 0 0 8.533334 42.666666 31.573333 31.573333 0 0 0 42.666666-8.533333 416 416 0 0 0 0-463.786667 32.853333 32.853333 0 0 0-24.746666-10.666666z"  horiz-adv-x="1024" />

    
    <glyph glyph-name="b-72" unicode="&#59259;" d="M768 746.666667a21.333333 21.333333 0 0 0 21.333333-21.333334v-682.666666a21.333333 21.333333 0 0 0-21.333333-21.333334H256a21.333333 21.333333 0 0 0-21.333333 21.333334V725.333333a21.333333 21.333333 0 0 0 21.333333 21.333334h512M768 810.666667H256a85.333333 85.333333 0 0 1-85.333333-85.333334v-682.666666a85.333333 85.333333 0 0 1 85.333333-85.333334h512a85.333333 85.333333 0 0 1 85.333333 85.333334V725.333333a85.333333 85.333333 0 0 1-85.333333 85.333334zM341.333333 522.666667m32 0l277.333334 0q32 0 32-32l0 0q0-32-32-32l-277.333334 0q-32 0-32 32l0 0q0 32 32 32ZM341.333333 320m32 0l277.333334 0q32 0 32-32l0 0q0-32-32-32l-277.333334 0q-32 0-32 32l0 0q0 32 32 32Z"  horiz-adv-x="1024" />

    
    <glyph glyph-name="b-73" unicode="&#59260;" d="M298.666667 64m32 0l362.666666 0q32 0 32-32l0 0q0-32-32-32l-362.666666 0q-32 0-32 32l0 0q0 32 32 32ZM810.666667 704a21.333333 21.333333 0 0 0 21.333333-21.333333v-469.333334a21.333333 21.333333 0 0 0-21.333333-21.333333H213.333333a21.333333 21.333333 0 0 0-21.333333 21.333333V682.666667a21.333333 21.333333 0 0 0 21.333333 21.333333h597.333334M810.666667 768H213.333333a85.333333 85.333333 0 0 1-85.333333-85.333333v-469.333334a85.333333 85.333333 0 0 1 85.333333-85.333333h597.333334a85.333333 85.333333 0 0 1 85.333333 85.333333V682.666667a85.333333 85.333333 0 0 1-85.333333 85.333333z"  horiz-adv-x="1024" />

    
    <glyph glyph-name="b-74" unicode="&#59261;" d="M512 746.666667A362.666667 362.666667 0 1 0 149.333333 384 363.093333 363.093333 0 0 0 512 746.666667M512 810.666667a426.666667 426.666667 0 1 1 426.666667-426.666667A426.666667 426.666667 0 0 1 512 810.666667zM663.04 200.96a33.706667 33.706667 0 0 0-23.04 9.386667l-150.613333 151.04a32 32 0 0 0-9.386667 22.613333V597.333333a32 32 0 0 0 64 0v-200.106666L685.653333 256a32.853333 32.853333 0 0 0 0-45.653333 33.706667 33.706667 0 0 0-22.613333-9.386667z"  horiz-adv-x="1024" />

    
    <glyph glyph-name="b-75" unicode="&#59262;" d="M298.666667 416m32 0l362.666666 0q32 0 32-32l0 0q0-32-32-32l-362.666666 0q-32 0-32 32l0 0q0 32 32 32ZM480 170.666667m0 32l0 362.666666q0 32 32 32l0 0q32 0 32-32l0-362.666666q0-32-32-32l0 0q-32 0-32 32ZM512 768a20.053333 20.053333 0 0 0 14.933333-6.4l362.24-362.24a21.333333 21.333333 0 0 0 0-29.866667l-362.24-362.24a20.48 20.48 0 0 0-29.866666 0l-362.24 361.813334a21.333333 21.333333 0 0 0 0 29.866666l362.24 362.24A20.053333 20.053333 0 0 0 512 768m0 64a85.333333 85.333333 0 0 1-60.16-25.173333l-362.24-362.666667a85.333333 85.333333 0 0 1 0-120.32l362.24-362.24a85.333333 85.333333 0 0 1 120.32 0l362.24 362.24a85.333333 85.333333 0 0 1 0 120.32L572.16 806.4A85.333333 85.333333 0 0 1 512 831.573333z"  horiz-adv-x="1024" />

    
    <glyph glyph-name="b-76" unicode="&#59263;" d="M85.333333 650.666667m32 0l789.333334 0q32 0 32-32l0 0q0-32-32-32l-789.333334 0q-32 0-32 32l0 0q0 32 32 32ZM781.226667 586.666667l-67.84-557.226667a21.333333 21.333333 0 0 0-20.906667-18.773333H331.52a21.333333 21.333333 0 0 0-20.906667 18.773333L242.773333 586.666667h538.453334M853.333333 650.666667H170.666667l76.373333-628.906667a85.333333 85.333333 0 0 1 85.333333-75.093333h360.96a85.333333 85.333333 0 0 1 85.333334 75.093333L853.333333 650.666667zM640 746.666667a21.333333 21.333333 0 0 0 21.333333-21.333334v-106.666666h-298.666666V725.333333a21.333333 21.333333 0 0 0 21.333333 21.333334h256M640 810.666667H384a85.333333 85.333333 0 0 1-85.333333-85.333334v-128h426.666666V725.333333a85.333333 85.333333 0 0 1-85.333333 85.333334zM384 128m32 0l192 0q32 0 32-32l0 0q0-32-32-32l-192 0q-32 0-32 32l0 0q0 32 32 32Z"  horiz-adv-x="1024" />

    
    <glyph glyph-name="b-77" unicode="&#59264;" d="M599.893333 746.666667a22.613333 22.613333 0 0 0 16.64-7.68l167.68-201.386667a20.906667 20.906667 0 0 0 5.12-13.653333V42.666667a21.333333 21.333333 0 0 0-21.333333-21.333334H256a21.333333 21.333333 0 0 0-21.333333 21.333334V725.333333a21.333333 21.333333 0 0 0 21.333333 21.333334h343.893333m0 64H256a85.333333 85.333333 0 0 1-85.333333-85.333334v-682.666666a85.333333 85.333333 0 0 1 85.333333-85.333334h512a85.333333 85.333333 0 0 1 85.333333 85.333334V523.946667a85.333333 85.333333 0 0 1-19.626666 54.613333L665.6 779.946667A85.333333 85.333333 0 0 1 599.893333 810.666667zM416.853333 204.8V479.573333h103.68a256 256 0 0 0 42.666667-2.56 79.36 79.36 0 0 0 34.133333-12.8 71.68 71.68 0 0 0 22.186667-26.453333 85.333333 85.333333 0 0 0 8.106667-37.546667 85.333333 85.333333 0 0 0-23.04-58.88 107.093333 107.093333 0 0 0-80.64-24.32h-70.4v-112.213333z m36.693334 144.213333h70.826666a73.813333 73.813333 0 0 1 49.92 13.226667 44.8 44.8 0 0 1 14.933334 36.693333 50.773333 50.773333 0 0 1-8.533334 29.44 40.106667 40.106667 0 0 1-23.04 16.213334 148.48 148.48 0 0 1-34.133333 2.56h-69.973333zM462.08 196.266667H408.32V488.106667h112.213333a277.76 277.76 0 0 0 42.666667-2.56 87.893333 87.893333 0 0 0 37.12-14.506667 72.106667 72.106667 0 0 0 24.746667-29.866667 87.466667 87.466667 0 0 0 9.386666-42.666666 92.16 92.16 0 0 0-24.746666-65.28 113.493333 113.493333 0 0 0-85.333334-26.88h-62.293333zM426.666667 213.333333h19.626666v111.786667h78.933334a100.693333 100.693333 0 0 1 74.24 21.333333 75.946667 75.946667 0 0 1 20.053333 53.76 79.36 79.36 0 0 1-7.253333 33.706667 61.013333 61.013333 0 0 1-19.2 23.04 76.8 76.8 0 0 1-30.72 11.52 236.373333 236.373333 0 0 1-42.666667 2.56H426.666667z m98.986666 128h-80.64v115.2h78.506667a170.666667 170.666667 0 0 0 36.266667-2.56 49.92 49.92 0 0 0 27.733333-19.626666 58.88 58.88 0 0 0 10.24-34.56 55.04 55.04 0 0 0-17.493333-42.666667 82.773333 82.773333 0 0 0-55.893334-15.786667z m-62.293333 17.066667h62.293333a65.28 65.28 0 0 1 42.666667 11.093333 37.546667 37.546667 0 0 1 11.946667 30.293334 39.68 39.68 0 0 1-7.253334 24.746666 33.706667 33.706667 0 0 1-17.92 12.8 156.586667 156.586667 0 0 1-32 0h-61.013333z"  horiz-adv-x="1024" />

    
    <glyph glyph-name="b-78" unicode="&#59265;" d="M599.893333 746.666667a22.613333 22.613333 0 0 0 16.64-7.68l167.68-201.386667a20.906667 20.906667 0 0 0 5.12-13.653333V42.666667a21.333333 21.333333 0 0 0-21.333333-21.333334H256a21.333333 21.333333 0 0 0-21.333333 21.333334V725.333333a21.333333 21.333333 0 0 0 21.333333 21.333334h343.893333m0 64H256a85.333333 85.333333 0 0 1-85.333333-85.333334v-682.666666a85.333333 85.333333 0 0 1 85.333333-85.333334h512a85.333333 85.333333 0 0 1 85.333333 85.333334V523.946667a85.333333 85.333333 0 0 1-19.626666 54.613333L665.6 779.946667A85.333333 85.333333 0 0 1 599.893333 810.666667zM402.346667 204.8v33.706667l140.8 176.213333c10.24 12.373333 19.626667 23.04 28.586666 32.426667H418.133333v32.426666h197.12v-32.426666L460.8 256l-16.64-19.2h175.36v-32.426667zM628.053333 196.266667H393.813333v45.226666l142.933334 178.346667a241.92 241.92 0 0 0 15.36 18.773333H409.6V488.106667h213.333333v-42.666667l-160.853333-198.4h165.12zM410.88 213.333333h200.106667v15.36H426.666667l29.013333 33.28 152.32 188.16V469.333333H426.666667v-15.36h165.12l-14.08-14.506666c-8.533333-8.96-17.92-19.626667-27.733334-32l-139.093333-171.946667z"  horiz-adv-x="1024" />

    
    <glyph glyph-name="b-79" unicode="&#59266;" d="M768 746.666667a21.333333 21.333333 0 0 0 21.333333-21.333334v-98.133333a21.76 21.76 0 0 0-4.693333-13.226667l-151.893333-189.866666a64 64 0 0 1-3.413334-75.52l156.586667-235.946667a21.333333 21.333333 0 0 0 3.413333-11.52V42.666667a21.333333 21.333333 0 0 0-21.333333-21.333334H256a21.333333 21.333333 0 0 0-21.333333 21.333334v59.733333a21.333333 21.333333 0 0 0 3.413333 11.52l156.586667 236.373333A64 64 0 0 1 391.253333 426.666667L239.36 613.973333a22.186667 22.186667 0 0 0-4.693333 13.653334V725.333333a21.333333 21.333333 0 0 0 21.333333 21.333334h512M768 810.666667H256a85.333333 85.333333 0 0 1-85.333333-85.333334v-97.706666a87.466667 87.466667 0 0 1 18.773333-53.76L341.333333 384l-156.586666-234.666667A87.466667 87.466667 0 0 1 170.666667 102.4V42.666667a85.333333 85.333333 0 0 1 85.333333-85.333334h512a85.333333 85.333333 0 0 1 85.333333 85.333334v58.453333a85.333333 85.333333 0 0 1-14.08 46.933333L682.666667 384l151.893333 189.866667A85.333333 85.333333 0 0 1 853.333333 627.2V725.333333a85.333333 85.333333 0 0 1-85.333333 85.333334zM597.333333 96h-170.666666a32 32 0 0 0 0 64h170.666666a32 32 0 0 0 0-64z"  horiz-adv-x="1024" />

    
    <glyph glyph-name="b-80" unicode="&#59267;" d="M512 738.56a21.333333 21.333333 0 0 0 10.24-2.56l298.666667-165.973333a21.76 21.76 0 0 0 11.093333-18.773334v-196.693333a192.426667 192.426667 0 0 0-85.333333-160l-222.72-148.48a22.613333 22.613333 0 0 0-23.893334 0L277.333333 194.56a192.426667 192.426667 0 0 0-85.333333 160V551.253333a21.76 21.76 0 0 0 11.093333 18.773334l298.666667 165.973333a21.333333 21.333333 0 0 0 10.24 2.56m0 64a89.173333 89.173333 0 0 1-42.666667-10.666667L170.666667 625.92a85.333333 85.333333 0 0 1-42.666667-74.666667v-196.693333a256 256 0 0 1 113.92-213.333333l222.72-148.053334a85.333333 85.333333 0 0 1 94.72 0l222.72 148.053334a256 256 0 0 1 113.92 213.333333V551.253333a85.333333 85.333333 0 0 1-42.666667 74.666667l-298.666666 165.973333a89.173333 89.173333 0 0 1-42.666667 10.666667zM640 390.4H384a32 32 0 0 0 0 64h256a32 32 0 0 0 0-64zM640 262.4H384a32 32 0 0 0 0 64h256a32 32 0 0 0 0-64zM512 177.066667a32.426667 32.426667 0 0 0-32 32v213.333333a32 32 0 0 0 9.386667 22.613333l128 128a31.573333 31.573333 0 0 0 45.226666 0 32 32 0 0 0 0-45.226666l-118.613333-118.613334v-200.106666a32.426667 32.426667 0 0 0-32-32zM471.466667 467.2a31.573333 31.573333 0 0 0-22.613334 9.386667L388.693333 536.746667a32 32 0 0 0 0 45.226666 32 32 0 0 0 45.226667 0l60.16-60.16a31.573333 31.573333 0 0 0 0-45.226666 30.293333 30.293333 0 0 0-22.613333-9.386667z"  horiz-adv-x="1024" />

    
    <glyph glyph-name="b-81" unicode="&#59268;" d="M599.893333 746.666667a22.613333 22.613333 0 0 0 16.64-7.68l167.68-201.386667a20.906667 20.906667 0 0 0 5.12-13.653333V42.666667a21.333333 21.333333 0 0 0-21.333333-21.333334H256a21.333333 21.333333 0 0 0-21.333333 21.333334V725.333333a21.333333 21.333333 0 0 0 21.333333 21.333334h343.893333m0 64H256a85.333333 85.333333 0 0 1-85.333333-85.333334v-682.666666a85.333333 85.333333 0 0 1 85.333333-85.333334h512a85.333333 85.333333 0 0 1 85.333333 85.333334V523.946667a85.333333 85.333333 0 0 1-19.626666 54.613333L665.6 779.946667A85.333333 85.333333 0 0 1 599.893333 810.666667zM403.626667 204.8V479.573333h121.6a166.826667 166.826667 0 0 0 55.893333-7.253333 62.72 62.72 0 0 0 30.72-26.026667 78.933333 78.933333 0 0 0 11.52-42.666666 68.266667 68.266667 0 0 0-19.2-49.066667 94.72 94.72 0 0 0-58.453333-25.6 106.666667 106.666667 0 0 0 22.186666-13.653333 177.066667 177.066667 0 0 0 29.866667-36.693334l48.213333-74.666666h-46.08l-36.266666 57.173333c-10.666667 16.64-19.2 29.013333-26.026667 37.973333a91.733333 91.733333 0 0 1-18.773333 18.346667 48.213333 48.213333 0 0 1-16.64 7.253333 107.093333 107.093333 0 0 1-20.053334 0h-42.666666v-119.893333z m36.266666 153.6h78.08a119.893333 119.893333 0 0 1 39.253334 5.12 42.666667 42.666667 0 0 1 21.333333 16.64 45.226667 45.226667 0 0 1 7.253333 24.32 42.666667 42.666667 0 0 1-14.08 32.426667 67.84 67.84 0 0 1-44.8 12.373333h-85.333333zM661.333333 196.266667H597.333333L554.666667 256c-10.24 16.213333-19.2 28.586667-25.6 37.12a75.093333 75.093333 0 0 1-16.64 16.64 35.413333 35.413333 0 0 1-13.653334 5.973333 71.253333 71.253333 0 0 1-18.346666 0h-33.706667v-119.466666H395.093333V488.106667h130.133334a165.973333 165.973333 0 0 0 59.306666-8.106667 68.266667 68.266667 0 0 0 34.56-29.44 85.333333 85.333333 0 0 0 12.8-46.08 78.08 78.08 0 0 0-21.333333-55.04 91.306667 91.306667 0 0 0-42.666667-23.466667l4.266667-3.413333a194.56 194.56 0 0 0 31.573333-38.4z m-56.746666 17.066666h25.6l-39.253334 61.866667a185.173333 185.173333 0 0 1-29.013333 34.56 92.586667 92.586667 0 0 1-19.626667 12.373333l-25.6 12.373334 28.16 3.84a88.746667 88.746667 0 0 1 52.48 23.04 59.733333 59.733333 0 0 1 16.64 42.666666 69.546667 69.546667 0 0 1-10.24 37.12 52.053333 52.053333 0 0 1-26.453333 22.613334 150.613333 150.613333 0 0 1-52.053333 5.546666H412.16v-256h19.2v122.026667h50.773333a92.16 92.16 0 0 0 21.76 0 53.333333 53.333333 0 0 0 19.626667-8.106667 85.333333 85.333333 0 0 0 20.48-20.48 448 448 0 0 0 26.88-38.4z m-85.333334 136.533334h-85.333333v107.946666h95.573333a71.68 71.68 0 0 0 50.346667-14.933333 47.786667 47.786667 0 0 0 17.066667-38.4 54.613333 54.613333 0 0 0-8.533334-29.013333 50.346667 50.346667 0 0 0-25.6-20.053334 128 128 0 0 0-44.8-5.546666z m-69.546666 17.066666h69.546666a101.973333 101.973333 0 0 1 36.266667 4.693334 31.146667 31.146667 0 0 1 17.066667 12.8 37.973333 37.973333 0 0 1 5.973333 20.053333 33.28 33.28 0 0 1-11.52 26.026667 58.88 58.88 0 0 1-38.826667 10.24h-79.786666z"  horiz-adv-x="1024" />

    
    <glyph glyph-name="b-82" unicode="&#59269;" d="M512 531.626667a85.333333 85.333333 0 1 0-85.333333-85.333334 85.333333 85.333333 0 0 0 85.333333 85.333334M512 597.333333a149.333333 149.333333 0 1 1 149.333333-149.333333A149.333333 149.333333 0 0 1 512 597.333333zM512-29.44a85.333333 85.333333 0 0 0-61.866667 26.88c-81.066667 85.333333-222.72 243.626667-260.693333 331.093333a351.573333 351.573333 0 0 0 77.226667 392.96 351.573333 351.573333 0 0 0 597.333333-232.96 348.586667 348.586667 0 0 0-27.306667-156.16c-37.546667-89.173333-180.48-248.32-261.973333-334.933333a85.333333 85.333333 0 0 0-62.72-26.88z m0 786.773333a288.426667 288.426667 0 0 1-264.106667-403.2c25.173333-57.173333 115.626667-170.666667 248.746667-312.746666a21.76 21.76 0 0 1 30.72 0c134.4 142.933333 225.28 256 250.026667 316.16a285.013333 285.013333 0 0 1 22.186666 128 293.12 293.12 0 0 1-279.466666 272.213333z"  horiz-adv-x="1024" />

    
    <glyph glyph-name="b-83" unicode="&#59270;" d="M512 117.76a52.906667 52.906667 0 0 0-37.546667 15.36L97.28 512a32 32 0 1 0 45.226667 42.666667L512 186.026667 881.493333 554.666667a32 32 0 0 0 45.226667-42.666667l-377.173333-377.173333a52.906667 52.906667 0 0 0-37.546667-17.066667z"  horiz-adv-x="1024" />

    
    <glyph glyph-name="b-84" unicode="&#59271;" d="M512-42.666667A426.666667 426.666667 0 0 0 344.746667 775.253333a32 32 0 0 0 42.666666-16.64 32.426667 32.426667 0 0 0-17.066666-42.666666 362.666667 362.666667 0 1 1 283.306666 0 32.426667 32.426667 0 0 0-17.066666 42.666666 31.573333 31.573333 0 0 0 42.666666 16.64A426.666667 426.666667 0 0 0 512-42.666667zM480 810.666667m32 0l0 0q32 0 32-32l0-405.333334q0-32-32-32l0 0q-32 0-32 32l0 405.333334q0 32 32 32Z"  horiz-adv-x="1024" />

    
    <glyph glyph-name="b-85" unicode="&#59272;" d="M512 746.666667A362.666667 362.666667 0 1 0 149.333333 384 363.093333 363.093333 0 0 0 512 746.666667M512 810.666667a426.666667 426.666667 0 1 1 426.666667-426.666667A426.666667 426.666667 0 0 1 512 810.666667zM512 166.4m-42.666667 0a42.666667 42.666667 0 1 1 85.333334 0 42.666667 42.666667 0 1 1-85.333334 0ZM512 608A139.093333 139.093333 0 0 1 373.333333 469.333333a32 32 0 0 1 64 0A74.666667 74.666667 0 1 0 512 394.666667a32.426667 32.426667 0 0 1-32-32v-96h64v67.413333l7.68 2.133333A138.666667 138.666667 0 0 1 512 608z"  horiz-adv-x="1024" />

    
    <glyph glyph-name="b-86" unicode="&#59273;" d="M132.266667 409.173333H128a32 32 0 0 0-26.88 36.693334 416 416 0 0 0 781.226667 128 32.426667 32.426667 0 0 0-13.653334-42.666667 32 32 0 0 0-42.666666 13.653333 352.426667 352.426667 0 0 1-661.333334-108.8 31.573333 31.573333 0 0 0-32.426666-26.88zM505.6-17.493333a415.146667 415.146667 0 0 0-369.92 225.706666 32.426667 32.426667 0 0 0 13.653333 42.666667 32 32 0 0 0 42.666667-14.08A352.426667 352.426667 0 0 1 853.333333 346.026667a32 32 0 0 0 63.146667-9.386667 418.56 418.56 0 0 0-410.88-354.133333zM132.266667 256m32 0l0 0q32 0 32-32l0-149.333333q0-32-32-32l0 0q-32 0-32 32l0 149.333333q0 32 32 32ZM832 718.506667m32 0l0 0q32 0 32-32l0-149.333334q0-32-32-32l0 0q-32 0-32 32l0 149.333334q0 32 32 32Z"  horiz-adv-x="1024" />

    
    <glyph glyph-name="b-87" unicode="&#59274;" d="M256 405.333333A106.666667 106.666667 0 1 0 149.333333 298.666667 106.666667 106.666667 0 0 0 256 405.333333M256 469.333333a170.666667 170.666667 0 1 1 170.666667-170.666666 170.666667 170.666667 0 0 1-170.666667 170.666666zM789.333333 234.666667a85.333333 85.333333 0 1 0-85.333333-85.333334 85.333333 85.333333 0 0 0 85.333333 85.333334m0 64a149.333333 149.333333 0 1 1 149.333334-149.333334 149.333333 149.333333 0 0 1-149.333334 149.333334zM576 746.666667a85.333333 85.333333 0 1 0-85.333333-85.333334 85.333333 85.333333 0 0 0 85.333333 85.333334m0 64A149.333333 149.333333 0 1 1 725.333333 661.333333 149.333333 149.333333 0 0 1 576 810.666667zM309.674667 440.704l179.498666 179.498667 45.226667-45.226667-179.498667-179.541333zM345.301333 219.136l16.554667 61.866667 322.688-86.485334-16.554667-61.866666z"  horiz-adv-x="1024" />

    
    <glyph glyph-name="b-88" unicode="&#59275;" d="M864 0H213.333333a85.333333 85.333333 0 0 0-85.333333 85.333333V736a32 32 0 0 0 64 0V85.333333a21.333333 21.333333 0 0 1 21.333333-21.333333h650.666667a32 32 0 0 0 0-64zM620.8 266.666667a54.186667 54.186667 0 0 0-37.546667 15.36l-151.04 151.04-142.933333-143.36a32 32 0 0 0-45.226667 0 31.573333 31.573333 0 0 0 0 45.226666l150.613334 151.04a54.186667 54.186667 0 0 0 37.546666 15.36 54.186667 54.186667 0 0 0 37.546667-15.36l150.613333-151.04L810.666667 523.52a32 32 0 0 0 45.226666 0 31.573333 31.573333 0 0 0 0-45.226667l-195.84-196.266666a54.186667 54.186667 0 0 0-37.546666-15.36z"  horiz-adv-x="1024" />

    
    <glyph glyph-name="b-89" unicode="&#59276;" d="M842.666667 10.666667H181.333333a85.333333 85.333333 0 0 0-85.333333 85.333333v277.333333a85.333333 85.333333 0 0 0 85.333333 85.333334H243.2a32 32 0 0 0 0-64H181.333333a21.333333 21.333333 0 0 1-21.333333-21.333334v-277.333333a21.333333 21.333333 0 0 1 21.333333-21.333333h661.333334a21.333333 21.333333 0 0 1 21.333333 21.333333v277.333333a21.333333 21.333333 0 0 1-21.333333 21.333334H780.8a32 32 0 0 0 0 64h61.866667a85.333333 85.333333 0 0 0 85.333333-85.333334v-277.333333a85.333333 85.333333 0 0 0-85.333333-85.333333zM480 736h64V256a32 32 0 0 0-32-32 32 32 0 0 0-32 32V736zM632.746667 605.44a31.146667 31.146667 0 0 0-22.613334 9.386667l-85.333333 82.773333a20.48 20.48 0 0 1-29.866667 0l-85.333333-82.773333a32 32 0 1 0-40.96 45.226666l83.2 83.2a85.333333 85.333333 0 0 0 120.32 0l83.2-85.333333a32 32 0 0 0 0-45.226667 31.573333 31.573333 0 0 0-22.613333-7.253333z"  horiz-adv-x="1024" />

    
    <glyph glyph-name="b-90" unicode="&#59277;" d="M256 128m0 32l0 192q0 32 32 32l0 0q32 0 32-32l0-192q0-32-32-32l0 0q-32 0-32 32ZM545.706667 730.453333a64 64 0 0 0 63.146666-74.24l-14.506666-91.733333A65.28 65.28 0 0 1 609.28 512a64 64 0 0 1 48.64-22.186667h159.573333a63.573333 63.573333 0 0 0 50.346667-24.746666 62.293333 62.293333 0 0 0 11.093333-56.32l-65.706666-295.68a63.573333 63.573333 0 0 0-62.293334-49.066667H213.333333a21.333333 21.333333 0 0 0-21.333333 21.333333v354.56a21.333333 21.333333 0 0 0 17.92 20.906667l104.533333 17.493333A192.426667 192.426667 0 0 1 469.333333 615.68l20.906667 75.52a52.053333 52.053333 0 0 0 32 34.133333h2.986667a57.173333 57.173333 0 0 0 20.48 3.413334m0 64a136.106667 136.106667 0 0 1-40.533334-6.4h-2.986666A116.053333 116.053333 0 0 1 426.666667 708.266667l-21.333334-75.093334a128 128 0 0 0-101.546666-91.733333l-104.533334-17.493333a85.333333 85.333333 0 0 1-71.253333-85.333334V85.333333a85.333333 85.333333 0 0 1 85.333333-85.333333h537.6a128 128 0 0 1 124.586667 100.266667l66.133333 295.253333A128 128 0 0 1 817.493333 554.666667h-159.573333s5.973333 42.666667 14.08 91.306666a128 128 0 0 1-128 148.48z"  horiz-adv-x="1024" />

    
    <glyph glyph-name="b-91" unicode="&#59278;" d="M640 320a21.333333 21.333333 0 0 0 21.333333-21.333333v-256a21.333333 21.333333 0 0 0-21.333333-21.333334H384a21.333333 21.333333 0 0 0-21.333333 21.333334v256a21.333333 21.333333 0 0 0 21.333333 21.333333h256m0 64H384a85.333333 85.333333 0 0 1-85.333333-85.333333v-256a85.333333 85.333333 0 0 1 85.333333-85.333334h256a85.333333 85.333333 0 0 1 85.333333 85.333334v256a85.333333 85.333333 0 0 1-85.333333 85.333333zM736 597.333333h-64V682.666667a49.493333 49.493333 0 0 1-44.8 53.333333H396.8A49.493333 49.493333 0 0 1 352 682.666667v-85.333334h-64V682.666667A113.066667 113.066667 0 0 0 396.8 800h230.4A113.066667 113.066667 0 0 0 736 682.666667zM842.666667 181.333333h-19.2a32 32 0 1 0 0 64h19.2a21.333333 21.333333 0 0 1 21.333333 21.333334v277.333333a21.333333 21.333333 0 0 1-21.333333 21.333333H181.333333a21.333333 21.333333 0 0 1-21.333333-21.333333v-277.333333a21.333333 21.333333 0 0 1 21.333333-21.333334h19.2a32 32 0 0 0 0-64h-19.2a85.333333 85.333333 0 0 0-85.333333 85.333334v277.333333a85.333333 85.333333 0 0 0 85.333333 85.333333h661.333334a85.333333 85.333333 0 0 0 85.333333-85.333333v-277.333333a85.333333 85.333333 0 0 0-85.333333-85.333334zM597.333333 501.333333m32 0l106.666667 0q32 0 32-32l0 0q0-32-32-32l-106.666667 0q-32 0-32 32l0 0q0 32 32 32Z"  horiz-adv-x="1024" />

    
    <glyph glyph-name="b-92" unicode="&#59279;" d="M807.552 726.954667l46.506667-46.506667-339.754667-339.669333a32 32 0 0 0-45.226667 0 32 32 0 0 0 0 45.226666l339.712 339.712zM800 10.666667H224a85.333333 85.333333 0 0 0-85.333333 85.333333V672a85.333333 85.333333 0 0 0 85.333333 85.333333h320a32 32 0 0 0 0-64h-320a21.333333 21.333333 0 0 1-21.333333-21.333333v-576a21.333333 21.333333 0 0 1 21.333333-21.333333h576a21.333333 21.333333 0 0 1 21.333333 21.333333v320a32 32 0 0 0 64 0v-320a85.333333 85.333333 0 0 0-85.333333-85.333333zM830.72 533.76a32.426667 32.426667 0 0 0-9.386667 20.906667V674.133333a21.333333 21.333333 0 0 1-21.333333 21.333334H682.666667a32 32 0 0 0 0 64h117.333333a85.333333 85.333333 0 0 0 85.333333-85.333334V554.666667a32 32 0 0 0-32-29.866667 32.853333 32.853333 0 0 0-22.613333 8.96z"  horiz-adv-x="1024" />

    
    <glyph glyph-name="b-93" unicode="&#59280;" d="M512 746.666667A362.666667 362.666667 0 1 0 149.333333 384 363.093333 363.093333 0 0 0 512 746.666667M512 810.666667a426.666667 426.666667 0 1 1 426.666667-426.666667A426.666667 426.666667 0 0 1 512 810.666667zM233.258667 150.485333l512 512 45.226666-45.269333-512-512z"  horiz-adv-x="1024" />

    
    <glyph glyph-name="b-94" unicode="&#59281;" d="M682.666667 0H213.333333a85.333333 85.333333 0 0 0-85.333333 85.333333v128a32.426667 32.426667 0 0 0 11.946667 25.173334L324.693333 384a269.653333 269.653333 0 0 0-32 320.853333l3.413334 5.973334A204.373333 204.373333 0 0 0 469.333333 810.666667h85.333334a204.373333 204.373333 0 0 0 173.653333-97.706667l3.413333-5.973333a269.653333 269.653333 0 0 0-32.426666-322.986667l3.413333-2.56a32 32 0 0 0-40.106667-50.346667l-32 25.6a32.426667 32.426667 0 0 0-11.946666 27.306667 31.573333 31.573333 0 0 0 11.946666 24.746667 205.653333 205.653333 0 0 1 46.08 264.96l-3.84 5.973333A139.093333 139.093333 0 0 1 554.666667 746.666667h-85.333334a138.24 138.24 0 0 1-118.186666-66.986667l-3.84-5.973333a205.653333 205.653333 0 0 1 46.08-264.96 31.573333 31.573333 0 0 0 11.946666-24.746667 32.426667 32.426667 0 0 0-11.946666-25.173333L192 197.973333V85.333333a21.333333 21.333333 0 0 1 21.333333-21.333333h469.333334a32 32 0 0 0 0-64zM935.253333 138.666667h-185.173333a32 32 0 1 0 0 64h185.173333a32 32 0 1 0 0-64zM906.666667 277.333333h-128a32 32 0 0 0 0 64h128a32 32 0 0 0 0-64zM906.666667 0h-128a32 32 0 0 0 0 64h128a32 32 0 0 0 0-64z"  horiz-adv-x="1024" />

    
    <glyph glyph-name="b-95" unicode="&#59282;" d="M610.133333 512a32.853333 32.853333 0 0 1-22.613333-9.386667l-196.266667-196.266666a32 32 0 0 1 0-45.226667 33.706667 33.706667 0 0 1 22.613334-9.386667 32.853333 32.853333 0 0 1 22.613333 9.386667l196.266667 196.266667a32 32 0 0 1 0 45.226666 33.706667 33.706667 0 0 1-22.613334 9.386667zM391.253333-34.986667A116.053333 116.053333 0 0 0 308.48 0L128 180.48a117.76 117.76 0 0 0-34.133333 82.773333 116.48 116.48 0 0 0 34.133333 83.2l149.333333 148.906667a32 32 0 0 0 45.226667-45.226667L170.666667 301.226667a54.186667 54.186667 0 0 1-15.36-37.973334 53.333333 53.333333 0 0 1 15.36-37.546666L353.706667 42.666667a54.186667 54.186667 0 0 1 75.52 0l150.613333 151.04a32 32 0 0 0 45.226667-45.226667L474.453333 0a116.48 116.48 0 0 0-83.2-34.986667zM725.333333 261.546667a31.573333 31.573333 0 0 0-22.613333 9.386666 32 32 0 0 0 0 45.226667L853.333333 466.773333a54.186667 54.186667 0 0 1 15.36 37.973334 53.333333 53.333333 0 0 1-15.36 37.546666L670.293333 725.333333a54.186667 54.186667 0 0 1-75.52 0l-150.613333-152.746666a32 32 0 1 0-45.226667 45.226666L549.546667 768a117.76 117.76 0 0 0 165.973333 0L896 587.52a117.76 117.76 0 0 0 34.133333-82.773333 116.48 116.48 0 0 0-34.133333-83.2l-151.04-150.613334a31.573333 31.573333 0 0 0-19.626667-9.386666z"  horiz-adv-x="1024" />

    
    <glyph glyph-name="b-96" unicode="&#59283;" d="M853.333333 661.333333a21.333333 21.333333 0 0 0 21.333334-21.333333v-512a21.333333 21.333333 0 0 0-21.333334-21.333333H170.666667a21.333333 21.333333 0 0 0-21.333334 21.333333V640a21.333333 21.333333 0 0 0 21.333334 21.333333h682.666666M853.333333 725.333333H170.666667a85.333333 85.333333 0 0 1-85.333334-85.333333v-512a85.333333 85.333333 0 0 1 85.333334-85.333333h682.666666a85.333333 85.333333 0 0 1 85.333334 85.333333V640a85.333333 85.333333 0 0 1-85.333334 85.333333zM256 201.386667a31.146667 31.146667 0 0 0-22.613333 9.386666 32 32 0 0 0 0 45.226667L384 406.613333a53.333333 53.333333 0 0 0 75.52 0l120.746667-120.746666L768 474.453333a31.573333 31.573333 0 0 0 45.226667 0 32 32 0 0 0 0-45.226666l-196.266667-195.84a52.906667 52.906667 0 0 0-75.093333 0L419.84 354.133333l-143.36-143.36a31.573333 31.573333 0 0 0-20.48-9.386666zM298.666667 512m-42.666667 0a42.666667 42.666667 0 1 1 85.333333 0 42.666667 42.666667 0 1 1-85.333333 0Z"  horiz-adv-x="1024" />

    
    <glyph glyph-name="b-97" unicode="&#59284;" d="M149.76 288a32 32 0 0 0-31.573333 30.293333V341.333333a393.386667 393.386667 0 0 0 186.026666 335.786667 32 32 0 1 0 33.706667-54.613333A328.533333 328.533333 0 0 1 181.333333 341.333333v-19.626666a32 32 0 0 0-29.866666-33.706667zM512-53.333333a396.373333 396.373333 0 0 0-207.786667 58.88 32 32 0 0 0 33.706667 54.613333 335.786667 335.786667 0 0 1 348.16 0 32 32 0 0 0 33.706667-54.613333A395.52 395.52 0 0 0 512-53.333333zM916.906667 288a32 32 0 0 0-29.866667 33.706667V341.333333a328.533333 328.533333 0 0 1-156.586667 281.173334 32 32 0 1 0 33.706667 54.613333A392.533333 392.533333 0 0 0 949.333333 341.333333v-23.04a32 32 0 0 0-32.426666-30.293333zM512 768a85.333333 85.333333 0 1 0-85.333333-85.333333 85.333333 85.333333 0 0 0 85.333333 85.333333m0 64A149.333333 149.333333 0 1 1 661.333333 682.666667 149.333333 149.333333 0 0 1 512 832zM192 213.333333A64 64 0 1 0 128 149.333333 64 64 0 0 0 192 213.333333m0 64a128 128 0 1 1 128-128 128 128 0 0 1-128 128zM874.666667 213.333333a64 64 0 1 0-64-64 64 64 0 0 0 64 64m0 64a128 128 0 1 1 128-128 128 128 0 0 1-128 128z"  horiz-adv-x="1024" />

    
    <glyph glyph-name="b-98" unicode="&#59285;" d="M426.666667 618.666667A149.333333 149.333333 0 0 0 548.266667 554.666667a64.853333 64.853333 0 0 1 52.053333-26.88 85.333333 85.333333 0 0 1 14.933333 0A113.92 113.92 0 0 0 640 533.333333a106.24 106.24 0 0 0 105.386667-95.573333 64 64 0 0 1 34.986666-50.773333 170.666667 170.666667 0 0 0-76.373333-322.986667h-384a170.666667 170.666667 0 0 0-75.52 323.413333 64.426667 64.426667 0 0 1 34.986667 64.853334v7.68a69.973333 69.973333 0 0 0 0 9.386666A149.333333 149.333333 0 0 0 426.666667 618.666667M426.666667 682.666667a213.333333 213.333333 0 0 1-213.333334-213.333334 231.253333 231.253333 0 0 1 2.56-24.746666A234.24 234.24 0 0 1 320 0h384A234.24 234.24 0 0 1 810.666667 444.16 170.666667 170.666667 0 0 1 640 597.333333a174.08 174.08 0 0 1-39.68-5.12A213.333333 213.333333 0 0 1 426.666667 682.666667zM333.653333 266.24h-4.693333a32.426667 32.426667 0 0 0-26.88 36.693333 202.666667 202.666667 0 0 0 231.253333 170.666667 226.133333 226.133333 0 0 0 39.68-10.24 32 32 0 0 0-22.186666-60.16 128 128 0 0 1-27.306667 7.253333 139.093333 139.093333 0 0 1-158.293333-116.053333 31.573333 31.573333 0 0 0-31.573334-28.16z"  horiz-adv-x="1024" />

    
    <glyph glyph-name="b-99" unicode="&#59286;" d="M213.333333 704A64 64 0 1 0 149.333333 640 64 64 0 0 0 213.333333 704M213.333333 768a128 128 0 1 1 128-128 128 128 0 0 1-128 128zM213.333333 10.666667a32.426667 32.426667 0 0 0-32 32V512a32 32 0 0 0 64 0v-469.333333a32.426667 32.426667 0 0 0-32-32zM810.666667 192a64 64 0 1 0-64-64 64 64 0 0 0 64 64m0 64a128 128 0 1 1 128-128 128 128 0 0 1-128 128zM810.666667 224a32.426667 32.426667 0 0 0-32 32V725.333333a32 32 0 0 0 64 0v-469.333333a32.426667 32.426667 0 0 0-32-32zM512 480a32.426667 32.426667 0 0 0-32 32V725.333333a32 32 0 0 0 64 0v-213.333333a32.426667 32.426667 0 0 0-32-32zM512 10.666667a32.426667 32.426667 0 0 0-32 32v213.333333a32 32 0 0 0 64 0v-213.333333a32.426667 32.426667 0 0 0-32-32zM512 469.333333a85.333333 85.333333 0 1 0-85.333333-85.333333 85.333333 85.333333 0 0 0 85.333333 85.333333m0 64a149.333333 149.333333 0 1 1 149.333333-149.333333A149.333333 149.333333 0 0 1 512 533.333333z"  horiz-adv-x="1024" />

    
    </font>
</defs>
</svg>
